<?xml version="1.0" encoding="utf-8" standalone="no"?>
<!DOCTYPE svg PUBLIC "-//W3C//DTD SVG 1.1//EN"
  "http://www.w3.org/Graphics/SVG/1.1/DTD/svg11.dtd">
<!-- Created with matplotlib (https://matplotlib.org/) -->
<svg height="345.6pt" version="1.1" viewBox="0 0 460.8 345.6" width="460.8pt" xmlns="http://www.w3.org/2000/svg" xmlns:xlink="http://www.w3.org/1999/xlink">
 <defs>
  <style type="text/css">
*{stroke-linecap:butt;stroke-linejoin:round;white-space:pre;}
  </style>
 </defs>
 <g id="figure_1">
  <g id="patch_1">
   <path d="M 0 345.6 
L 460.8 345.6 
L 460.8 0 
L 0 0 
z
" style="fill:#ffffff;"/>
  </g>
  <g id="axes_1">
   <g id="patch_2">
    <path d="M 57.6 307.584 
L 414.72 307.584 
L 414.72 41.472 
L 57.6 41.472 
z
" style="fill:#ffffff;"/>
   </g>
   <g id="matplotlib.axis_1">
    <g id="xtick_1">
     <g id="line2d_1">
      <defs>
       <path d="M 0 0 
L 0 3.5 
" id="m1f9193eba2" style="stroke:#000000;stroke-width:0.8;"/>
      </defs>
      <g>
       <use style="stroke:#000000;stroke-width:0.8;" x="73.832727" xlink:href="#m1f9193eba2" y="307.584"/>
      </g>
     </g>
     <g id="text_1">
      <!-- 0 -->
      <defs>
       <path d="M 31.78125 66.40625 
Q 24.171875 66.40625 20.328125 58.90625 
Q 16.5 51.421875 16.5 36.375 
Q 16.5 21.390625 20.328125 13.890625 
Q 24.171875 6.390625 31.78125 6.390625 
Q 39.453125 6.390625 43.28125 13.890625 
Q 47.125 21.390625 47.125 36.375 
Q 47.125 51.421875 43.28125 58.90625 
Q 39.453125 66.40625 31.78125 66.40625 
z
M 31.78125 74.21875 
Q 44.046875 74.21875 50.515625 64.515625 
Q 56.984375 54.828125 56.984375 36.375 
Q 56.984375 17.96875 50.515625 8.265625 
Q 44.046875 -1.421875 31.78125 -1.421875 
Q 19.53125 -1.421875 13.0625 8.265625 
Q 6.59375 17.96875 6.59375 36.375 
Q 6.59375 54.828125 13.0625 64.515625 
Q 19.53125 74.21875 31.78125 74.21875 
z
" id="DejaVuSans-48"/>
      </defs>
      <g transform="translate(70.651477 322.182437)scale(0.1 -0.1)">
       <use xlink:href="#DejaVuSans-48"/>
      </g>
     </g>
    </g>
    <g id="xtick_2">
     <g id="line2d_2">
      <g>
       <use style="stroke:#000000;stroke-width:0.8;" x="120.512029" xlink:href="#m1f9193eba2" y="307.584"/>
      </g>
     </g>
     <g id="text_2">
      <!-- 200 -->
      <defs>
       <path d="M 19.1875 8.296875 
L 53.609375 8.296875 
L 53.609375 0 
L 7.328125 0 
L 7.328125 8.296875 
Q 12.9375 14.109375 22.625 23.890625 
Q 32.328125 33.6875 34.8125 36.53125 
Q 39.546875 41.84375 41.421875 45.53125 
Q 43.3125 49.21875 43.3125 52.78125 
Q 43.3125 58.59375 39.234375 62.25 
Q 35.15625 65.921875 28.609375 65.921875 
Q 23.96875 65.921875 18.8125 64.3125 
Q 13.671875 62.703125 7.8125 59.421875 
L 7.8125 69.390625 
Q 13.765625 71.78125 18.9375 73 
Q 24.125 74.21875 28.421875 74.21875 
Q 39.75 74.21875 46.484375 68.546875 
Q 53.21875 62.890625 53.21875 53.421875 
Q 53.21875 48.921875 51.53125 44.890625 
Q 49.859375 40.875 45.40625 35.40625 
Q 44.1875 33.984375 37.640625 27.21875 
Q 31.109375 20.453125 19.1875 8.296875 
z
" id="DejaVuSans-50"/>
      </defs>
      <g transform="translate(110.968279 322.182437)scale(0.1 -0.1)">
       <use xlink:href="#DejaVuSans-50"/>
       <use x="63.623047" xlink:href="#DejaVuSans-48"/>
       <use x="127.246094" xlink:href="#DejaVuSans-48"/>
      </g>
     </g>
    </g>
    <g id="xtick_3">
     <g id="line2d_3">
      <g>
       <use style="stroke:#000000;stroke-width:0.8;" x="167.191331" xlink:href="#m1f9193eba2" y="307.584"/>
      </g>
     </g>
     <g id="text_3">
      <!-- 400 -->
      <defs>
       <path d="M 37.796875 64.3125 
L 12.890625 25.390625 
L 37.796875 25.390625 
z
M 35.203125 72.90625 
L 47.609375 72.90625 
L 47.609375 25.390625 
L 58.015625 25.390625 
L 58.015625 17.1875 
L 47.609375 17.1875 
L 47.609375 0 
L 37.796875 0 
L 37.796875 17.1875 
L 4.890625 17.1875 
L 4.890625 26.703125 
z
" id="DejaVuSans-52"/>
      </defs>
      <g transform="translate(157.647581 322.182437)scale(0.1 -0.1)">
       <use xlink:href="#DejaVuSans-52"/>
       <use x="63.623047" xlink:href="#DejaVuSans-48"/>
       <use x="127.246094" xlink:href="#DejaVuSans-48"/>
      </g>
     </g>
    </g>
    <g id="xtick_4">
     <g id="line2d_4">
      <g>
       <use style="stroke:#000000;stroke-width:0.8;" x="213.870633" xlink:href="#m1f9193eba2" y="307.584"/>
      </g>
     </g>
     <g id="text_4">
      <!-- 600 -->
      <defs>
       <path d="M 33.015625 40.375 
Q 26.375 40.375 22.484375 35.828125 
Q 18.609375 31.296875 18.609375 23.390625 
Q 18.609375 15.53125 22.484375 10.953125 
Q 26.375 6.390625 33.015625 6.390625 
Q 39.65625 6.390625 43.53125 10.953125 
Q 47.40625 15.53125 47.40625 23.390625 
Q 47.40625 31.296875 43.53125 35.828125 
Q 39.65625 40.375 33.015625 40.375 
z
M 52.59375 71.296875 
L 52.59375 62.3125 
Q 48.875 64.0625 45.09375 64.984375 
Q 41.3125 65.921875 37.59375 65.921875 
Q 27.828125 65.921875 22.671875 59.328125 
Q 17.53125 52.734375 16.796875 39.40625 
Q 19.671875 43.65625 24.015625 45.921875 
Q 28.375 48.1875 33.59375 48.1875 
Q 44.578125 48.1875 50.953125 41.515625 
Q 57.328125 34.859375 57.328125 23.390625 
Q 57.328125 12.15625 50.6875 5.359375 
Q 44.046875 -1.421875 33.015625 -1.421875 
Q 20.359375 -1.421875 13.671875 8.265625 
Q 6.984375 17.96875 6.984375 36.375 
Q 6.984375 53.65625 15.1875 63.9375 
Q 23.390625 74.21875 37.203125 74.21875 
Q 40.921875 74.21875 44.703125 73.484375 
Q 48.484375 72.75 52.59375 71.296875 
z
" id="DejaVuSans-54"/>
      </defs>
      <g transform="translate(204.326883 322.182437)scale(0.1 -0.1)">
       <use xlink:href="#DejaVuSans-54"/>
       <use x="63.623047" xlink:href="#DejaVuSans-48"/>
       <use x="127.246094" xlink:href="#DejaVuSans-48"/>
      </g>
     </g>
    </g>
    <g id="xtick_5">
     <g id="line2d_5">
      <g>
       <use style="stroke:#000000;stroke-width:0.8;" x="260.549935" xlink:href="#m1f9193eba2" y="307.584"/>
      </g>
     </g>
     <g id="text_5">
      <!-- 800 -->
      <defs>
       <path d="M 31.78125 34.625 
Q 24.75 34.625 20.71875 30.859375 
Q 16.703125 27.09375 16.703125 20.515625 
Q 16.703125 13.921875 20.71875 10.15625 
Q 24.75 6.390625 31.78125 6.390625 
Q 38.8125 6.390625 42.859375 10.171875 
Q 46.921875 13.96875 46.921875 20.515625 
Q 46.921875 27.09375 42.890625 30.859375 
Q 38.875 34.625 31.78125 34.625 
z
M 21.921875 38.8125 
Q 15.578125 40.375 12.03125 44.71875 
Q 8.5 49.078125 8.5 55.328125 
Q 8.5 64.0625 14.71875 69.140625 
Q 20.953125 74.21875 31.78125 74.21875 
Q 42.671875 74.21875 48.875 69.140625 
Q 55.078125 64.0625 55.078125 55.328125 
Q 55.078125 49.078125 51.53125 44.71875 
Q 48 40.375 41.703125 38.8125 
Q 48.828125 37.15625 52.796875 32.3125 
Q 56.78125 27.484375 56.78125 20.515625 
Q 56.78125 9.90625 50.3125 4.234375 
Q 43.84375 -1.421875 31.78125 -1.421875 
Q 19.734375 -1.421875 13.25 4.234375 
Q 6.78125 9.90625 6.78125 20.515625 
Q 6.78125 27.484375 10.78125 32.3125 
Q 14.796875 37.15625 21.921875 38.8125 
z
M 18.3125 54.390625 
Q 18.3125 48.734375 21.84375 45.5625 
Q 25.390625 42.390625 31.78125 42.390625 
Q 38.140625 42.390625 41.71875 45.5625 
Q 45.3125 48.734375 45.3125 54.390625 
Q 45.3125 60.0625 41.71875 63.234375 
Q 38.140625 66.40625 31.78125 66.40625 
Q 25.390625 66.40625 21.84375 63.234375 
Q 18.3125 60.0625 18.3125 54.390625 
z
" id="DejaVuSans-56"/>
      </defs>
      <g transform="translate(251.006185 322.182437)scale(0.1 -0.1)">
       <use xlink:href="#DejaVuSans-56"/>
       <use x="63.623047" xlink:href="#DejaVuSans-48"/>
       <use x="127.246094" xlink:href="#DejaVuSans-48"/>
      </g>
     </g>
    </g>
    <g id="xtick_6">
     <g id="line2d_6">
      <g>
       <use style="stroke:#000000;stroke-width:0.8;" x="307.229237" xlink:href="#m1f9193eba2" y="307.584"/>
      </g>
     </g>
     <g id="text_6">
      <!-- 1000 -->
      <defs>
       <path d="M 12.40625 8.296875 
L 28.515625 8.296875 
L 28.515625 63.921875 
L 10.984375 60.40625 
L 10.984375 69.390625 
L 28.421875 72.90625 
L 38.28125 72.90625 
L 38.28125 8.296875 
L 54.390625 8.296875 
L 54.390625 0 
L 12.40625 0 
z
" id="DejaVuSans-49"/>
      </defs>
      <g transform="translate(294.504237 322.182437)scale(0.1 -0.1)">
       <use xlink:href="#DejaVuSans-49"/>
       <use x="63.623047" xlink:href="#DejaVuSans-48"/>
       <use x="127.246094" xlink:href="#DejaVuSans-48"/>
       <use x="190.869141" xlink:href="#DejaVuSans-48"/>
      </g>
     </g>
    </g>
    <g id="xtick_7">
     <g id="line2d_7">
      <g>
       <use style="stroke:#000000;stroke-width:0.8;" x="353.908539" xlink:href="#m1f9193eba2" y="307.584"/>
      </g>
     </g>
     <g id="text_7">
      <!-- 1200 -->
      <g transform="translate(341.183539 322.182437)scale(0.1 -0.1)">
       <use xlink:href="#DejaVuSans-49"/>
       <use x="63.623047" xlink:href="#DejaVuSans-50"/>
       <use x="127.246094" xlink:href="#DejaVuSans-48"/>
       <use x="190.869141" xlink:href="#DejaVuSans-48"/>
      </g>
     </g>
    </g>
    <g id="xtick_8">
     <g id="line2d_8">
      <g>
       <use style="stroke:#000000;stroke-width:0.8;" x="400.587841" xlink:href="#m1f9193eba2" y="307.584"/>
      </g>
     </g>
     <g id="text_8">
      <!-- 1400 -->
      <g transform="translate(387.862841 322.182437)scale(0.1 -0.1)">
       <use xlink:href="#DejaVuSans-49"/>
       <use x="63.623047" xlink:href="#DejaVuSans-52"/>
       <use x="127.246094" xlink:href="#DejaVuSans-48"/>
       <use x="190.869141" xlink:href="#DejaVuSans-48"/>
      </g>
     </g>
    </g>
    <g id="text_9">
     <!-- Games -->
     <defs>
      <path d="M 59.515625 10.40625 
L 59.515625 29.984375 
L 43.40625 29.984375 
L 43.40625 38.09375 
L 69.28125 38.09375 
L 69.28125 6.78125 
Q 63.578125 2.734375 56.6875 0.65625 
Q 49.8125 -1.421875 42 -1.421875 
Q 24.90625 -1.421875 15.25 8.5625 
Q 5.609375 18.5625 5.609375 36.375 
Q 5.609375 54.25 15.25 64.234375 
Q 24.90625 74.21875 42 74.21875 
Q 49.125 74.21875 55.546875 72.453125 
Q 61.96875 70.703125 67.390625 67.28125 
L 67.390625 56.78125 
Q 61.921875 61.421875 55.765625 63.765625 
Q 49.609375 66.109375 42.828125 66.109375 
Q 29.4375 66.109375 22.71875 58.640625 
Q 16.015625 51.171875 16.015625 36.375 
Q 16.015625 21.625 22.71875 14.15625 
Q 29.4375 6.6875 42.828125 6.6875 
Q 48.046875 6.6875 52.140625 7.59375 
Q 56.25 8.5 59.515625 10.40625 
z
" id="DejaVuSans-71"/>
      <path d="M 34.28125 27.484375 
Q 23.390625 27.484375 19.1875 25 
Q 14.984375 22.515625 14.984375 16.5 
Q 14.984375 11.71875 18.140625 8.90625 
Q 21.296875 6.109375 26.703125 6.109375 
Q 34.1875 6.109375 38.703125 11.40625 
Q 43.21875 16.703125 43.21875 25.484375 
L 43.21875 27.484375 
z
M 52.203125 31.203125 
L 52.203125 0 
L 43.21875 0 
L 43.21875 8.296875 
Q 40.140625 3.328125 35.546875 0.953125 
Q 30.953125 -1.421875 24.3125 -1.421875 
Q 15.921875 -1.421875 10.953125 3.296875 
Q 6 8.015625 6 15.921875 
Q 6 25.140625 12.171875 29.828125 
Q 18.359375 34.515625 30.609375 34.515625 
L 43.21875 34.515625 
L 43.21875 35.40625 
Q 43.21875 41.609375 39.140625 45 
Q 35.0625 48.390625 27.6875 48.390625 
Q 23 48.390625 18.546875 47.265625 
Q 14.109375 46.140625 10.015625 43.890625 
L 10.015625 52.203125 
Q 14.9375 54.109375 19.578125 55.046875 
Q 24.21875 56 28.609375 56 
Q 40.484375 56 46.34375 49.84375 
Q 52.203125 43.703125 52.203125 31.203125 
z
" id="DejaVuSans-97"/>
      <path d="M 52 44.1875 
Q 55.375 50.25 60.0625 53.125 
Q 64.75 56 71.09375 56 
Q 79.640625 56 84.28125 50.015625 
Q 88.921875 44.046875 88.921875 33.015625 
L 88.921875 0 
L 79.890625 0 
L 79.890625 32.71875 
Q 79.890625 40.578125 77.09375 44.375 
Q 74.3125 48.1875 68.609375 48.1875 
Q 61.625 48.1875 57.5625 43.546875 
Q 53.515625 38.921875 53.515625 30.90625 
L 53.515625 0 
L 44.484375 0 
L 44.484375 32.71875 
Q 44.484375 40.625 41.703125 44.40625 
Q 38.921875 48.1875 33.109375 48.1875 
Q 26.21875 48.1875 22.15625 43.53125 
Q 18.109375 38.875 18.109375 30.90625 
L 18.109375 0 
L 9.078125 0 
L 9.078125 54.6875 
L 18.109375 54.6875 
L 18.109375 46.1875 
Q 21.1875 51.21875 25.484375 53.609375 
Q 29.78125 56 35.6875 56 
Q 41.65625 56 45.828125 52.96875 
Q 50 49.953125 52 44.1875 
z
" id="DejaVuSans-109"/>
      <path d="M 56.203125 29.59375 
L 56.203125 25.203125 
L 14.890625 25.203125 
Q 15.484375 15.921875 20.484375 11.0625 
Q 25.484375 6.203125 34.421875 6.203125 
Q 39.59375 6.203125 44.453125 7.46875 
Q 49.3125 8.734375 54.109375 11.28125 
L 54.109375 2.78125 
Q 49.265625 0.734375 44.1875 -0.34375 
Q 39.109375 -1.421875 33.890625 -1.421875 
Q 20.796875 -1.421875 13.15625 6.1875 
Q 5.515625 13.8125 5.515625 26.8125 
Q 5.515625 40.234375 12.765625 48.109375 
Q 20.015625 56 32.328125 56 
Q 43.359375 56 49.78125 48.890625 
Q 56.203125 41.796875 56.203125 29.59375 
z
M 47.21875 32.234375 
Q 47.125 39.59375 43.09375 43.984375 
Q 39.0625 48.390625 32.421875 48.390625 
Q 24.90625 48.390625 20.390625 44.140625 
Q 15.875 39.890625 15.1875 32.171875 
z
" id="DejaVuSans-101"/>
      <path d="M 44.28125 53.078125 
L 44.28125 44.578125 
Q 40.484375 46.53125 36.375 47.5 
Q 32.28125 48.484375 27.875 48.484375 
Q 21.1875 48.484375 17.84375 46.4375 
Q 14.5 44.390625 14.5 40.28125 
Q 14.5 37.15625 16.890625 35.375 
Q 19.28125 33.59375 26.515625 31.984375 
L 29.59375 31.296875 
Q 39.15625 29.25 43.1875 25.515625 
Q 47.21875 21.78125 47.21875 15.09375 
Q 47.21875 7.46875 41.1875 3.015625 
Q 35.15625 -1.421875 24.609375 -1.421875 
Q 20.21875 -1.421875 15.453125 -0.5625 
Q 10.6875 0.296875 5.421875 2 
L 5.421875 11.28125 
Q 10.40625 8.6875 15.234375 7.390625 
Q 20.0625 6.109375 24.8125 6.109375 
Q 31.15625 6.109375 34.5625 8.28125 
Q 37.984375 10.453125 37.984375 14.40625 
Q 37.984375 18.0625 35.515625 20.015625 
Q 33.0625 21.96875 24.703125 23.78125 
L 21.578125 24.515625 
Q 13.234375 26.265625 9.515625 29.90625 
Q 5.8125 33.546875 5.8125 39.890625 
Q 5.8125 47.609375 11.28125 51.796875 
Q 16.75 56 26.8125 56 
Q 31.78125 56 36.171875 55.265625 
Q 40.578125 54.546875 44.28125 53.078125 
z
" id="DejaVuSans-115"/>
     </defs>
     <g transform="translate(218.670156 335.860562)scale(0.1 -0.1)">
      <use xlink:href="#DejaVuSans-71"/>
      <use x="77.490234" xlink:href="#DejaVuSans-97"/>
      <use x="138.769531" xlink:href="#DejaVuSans-109"/>
      <use x="236.181641" xlink:href="#DejaVuSans-101"/>
      <use x="297.705078" xlink:href="#DejaVuSans-115"/>
     </g>
    </g>
   </g>
   <g id="matplotlib.axis_2">
    <g id="ytick_1">
     <g id="line2d_9">
      <defs>
       <path d="M 0 0 
L -3.5 0 
" id="m9e5927f70f" style="stroke:#000000;stroke-width:0.8;"/>
      </defs>
      <g>
       <use style="stroke:#000000;stroke-width:0.8;" x="57.6" xlink:href="#m9e5927f70f" y="283.392"/>
      </g>
     </g>
     <g id="text_10">
      <!-- 0.0 -->
      <defs>
       <path d="M 10.6875 12.40625 
L 21 12.40625 
L 21 0 
L 10.6875 0 
z
" id="DejaVuSans-46"/>
      </defs>
      <g transform="translate(34.696875 287.191219)scale(0.1 -0.1)">
       <use xlink:href="#DejaVuSans-48"/>
       <use x="63.623047" xlink:href="#DejaVuSans-46"/>
       <use x="95.410156" xlink:href="#DejaVuSans-48"/>
      </g>
     </g>
    </g>
    <g id="ytick_2">
     <g id="line2d_10">
      <g>
       <use style="stroke:#000000;stroke-width:0.8;" x="57.6" xlink:href="#m9e5927f70f" y="253.152"/>
      </g>
     </g>
     <g id="text_11">
      <!-- 2.5 -->
      <defs>
       <path d="M 10.796875 72.90625 
L 49.515625 72.90625 
L 49.515625 64.59375 
L 19.828125 64.59375 
L 19.828125 46.734375 
Q 21.96875 47.46875 24.109375 47.828125 
Q 26.265625 48.1875 28.421875 48.1875 
Q 40.625 48.1875 47.75 41.5 
Q 54.890625 34.8125 54.890625 23.390625 
Q 54.890625 11.625 47.5625 5.09375 
Q 40.234375 -1.421875 26.90625 -1.421875 
Q 22.3125 -1.421875 17.546875 -0.640625 
Q 12.796875 0.140625 7.71875 1.703125 
L 7.71875 11.625 
Q 12.109375 9.234375 16.796875 8.0625 
Q 21.484375 6.890625 26.703125 6.890625 
Q 35.15625 6.890625 40.078125 11.328125 
Q 45.015625 15.765625 45.015625 23.390625 
Q 45.015625 31 40.078125 35.4375 
Q 35.15625 39.890625 26.703125 39.890625 
Q 22.75 39.890625 18.8125 39.015625 
Q 14.890625 38.140625 10.796875 36.28125 
z
" id="DejaVuSans-53"/>
      </defs>
      <g transform="translate(34.696875 256.951219)scale(0.1 -0.1)">
       <use xlink:href="#DejaVuSans-50"/>
       <use x="63.623047" xlink:href="#DejaVuSans-46"/>
       <use x="95.410156" xlink:href="#DejaVuSans-53"/>
      </g>
     </g>
    </g>
    <g id="ytick_3">
     <g id="line2d_11">
      <g>
       <use style="stroke:#000000;stroke-width:0.8;" x="57.6" xlink:href="#m9e5927f70f" y="222.912"/>
      </g>
     </g>
     <g id="text_12">
      <!-- 5.0 -->
      <g transform="translate(34.696875 226.711219)scale(0.1 -0.1)">
       <use xlink:href="#DejaVuSans-53"/>
       <use x="63.623047" xlink:href="#DejaVuSans-46"/>
       <use x="95.410156" xlink:href="#DejaVuSans-48"/>
      </g>
     </g>
    </g>
    <g id="ytick_4">
     <g id="line2d_12">
      <g>
       <use style="stroke:#000000;stroke-width:0.8;" x="57.6" xlink:href="#m9e5927f70f" y="192.672"/>
      </g>
     </g>
     <g id="text_13">
      <!-- 7.5 -->
      <defs>
       <path d="M 8.203125 72.90625 
L 55.078125 72.90625 
L 55.078125 68.703125 
L 28.609375 0 
L 18.3125 0 
L 43.21875 64.59375 
L 8.203125 64.59375 
z
" id="DejaVuSans-55"/>
      </defs>
      <g transform="translate(34.696875 196.471219)scale(0.1 -0.1)">
       <use xlink:href="#DejaVuSans-55"/>
       <use x="63.623047" xlink:href="#DejaVuSans-46"/>
       <use x="95.410156" xlink:href="#DejaVuSans-53"/>
      </g>
     </g>
    </g>
    <g id="ytick_5">
     <g id="line2d_13">
      <g>
       <use style="stroke:#000000;stroke-width:0.8;" x="57.6" xlink:href="#m9e5927f70f" y="162.432"/>
      </g>
     </g>
     <g id="text_14">
      <!-- 10.0 -->
      <g transform="translate(28.334375 166.231219)scale(0.1 -0.1)">
       <use xlink:href="#DejaVuSans-49"/>
       <use x="63.623047" xlink:href="#DejaVuSans-48"/>
       <use x="127.246094" xlink:href="#DejaVuSans-46"/>
       <use x="159.033203" xlink:href="#DejaVuSans-48"/>
      </g>
     </g>
    </g>
    <g id="ytick_6">
     <g id="line2d_14">
      <g>
       <use style="stroke:#000000;stroke-width:0.8;" x="57.6" xlink:href="#m9e5927f70f" y="132.192"/>
      </g>
     </g>
     <g id="text_15">
      <!-- 12.5 -->
      <g transform="translate(28.334375 135.991219)scale(0.1 -0.1)">
       <use xlink:href="#DejaVuSans-49"/>
       <use x="63.623047" xlink:href="#DejaVuSans-50"/>
       <use x="127.246094" xlink:href="#DejaVuSans-46"/>
       <use x="159.033203" xlink:href="#DejaVuSans-53"/>
      </g>
     </g>
    </g>
    <g id="ytick_7">
     <g id="line2d_15">
      <g>
       <use style="stroke:#000000;stroke-width:0.8;" x="57.6" xlink:href="#m9e5927f70f" y="101.952"/>
      </g>
     </g>
     <g id="text_16">
      <!-- 15.0 -->
      <g transform="translate(28.334375 105.751219)scale(0.1 -0.1)">
       <use xlink:href="#DejaVuSans-49"/>
       <use x="63.623047" xlink:href="#DejaVuSans-53"/>
       <use x="127.246094" xlink:href="#DejaVuSans-46"/>
       <use x="159.033203" xlink:href="#DejaVuSans-48"/>
      </g>
     </g>
    </g>
    <g id="ytick_8">
     <g id="line2d_16">
      <g>
       <use style="stroke:#000000;stroke-width:0.8;" x="57.6" xlink:href="#m9e5927f70f" y="71.712"/>
      </g>
     </g>
     <g id="text_17">
      <!-- 17.5 -->
      <g transform="translate(28.334375 75.511219)scale(0.1 -0.1)">
       <use xlink:href="#DejaVuSans-49"/>
       <use x="63.623047" xlink:href="#DejaVuSans-55"/>
       <use x="127.246094" xlink:href="#DejaVuSans-46"/>
       <use x="159.033203" xlink:href="#DejaVuSans-53"/>
      </g>
     </g>
    </g>
    <g id="ytick_9">
     <g id="line2d_17">
      <g>
       <use style="stroke:#000000;stroke-width:0.8;" x="57.6" xlink:href="#m9e5927f70f" y="41.472"/>
      </g>
     </g>
     <g id="text_18">
      <!-- 20.0 -->
      <g transform="translate(28.334375 45.271219)scale(0.1 -0.1)">
       <use xlink:href="#DejaVuSans-50"/>
       <use x="63.623047" xlink:href="#DejaVuSans-48"/>
       <use x="127.246094" xlink:href="#DejaVuSans-46"/>
       <use x="159.033203" xlink:href="#DejaVuSans-48"/>
      </g>
     </g>
    </g>
    <g id="text_19">
     <!-- Episodic reward (true) -->
     <defs>
      <path d="M 9.8125 72.90625 
L 55.90625 72.90625 
L 55.90625 64.59375 
L 19.671875 64.59375 
L 19.671875 43.015625 
L 54.390625 43.015625 
L 54.390625 34.71875 
L 19.671875 34.71875 
L 19.671875 8.296875 
L 56.78125 8.296875 
L 56.78125 0 
L 9.8125 0 
z
" id="DejaVuSans-69"/>
      <path d="M 18.109375 8.203125 
L 18.109375 -20.796875 
L 9.078125 -20.796875 
L 9.078125 54.6875 
L 18.109375 54.6875 
L 18.109375 46.390625 
Q 20.953125 51.265625 25.265625 53.625 
Q 29.59375 56 35.59375 56 
Q 45.5625 56 51.78125 48.09375 
Q 58.015625 40.1875 58.015625 27.296875 
Q 58.015625 14.40625 51.78125 6.484375 
Q 45.5625 -1.421875 35.59375 -1.421875 
Q 29.59375 -1.421875 25.265625 0.953125 
Q 20.953125 3.328125 18.109375 8.203125 
z
M 48.6875 27.296875 
Q 48.6875 37.203125 44.609375 42.84375 
Q 40.53125 48.484375 33.40625 48.484375 
Q 26.265625 48.484375 22.1875 42.84375 
Q 18.109375 37.203125 18.109375 27.296875 
Q 18.109375 17.390625 22.1875 11.75 
Q 26.265625 6.109375 33.40625 6.109375 
Q 40.53125 6.109375 44.609375 11.75 
Q 48.6875 17.390625 48.6875 27.296875 
z
" id="DejaVuSans-112"/>
      <path d="M 9.421875 54.6875 
L 18.40625 54.6875 
L 18.40625 0 
L 9.421875 0 
z
M 9.421875 75.984375 
L 18.40625 75.984375 
L 18.40625 64.59375 
L 9.421875 64.59375 
z
" id="DejaVuSans-105"/>
      <path d="M 30.609375 48.390625 
Q 23.390625 48.390625 19.1875 42.75 
Q 14.984375 37.109375 14.984375 27.296875 
Q 14.984375 17.484375 19.15625 11.84375 
Q 23.34375 6.203125 30.609375 6.203125 
Q 37.796875 6.203125 41.984375 11.859375 
Q 46.1875 17.53125 46.1875 27.296875 
Q 46.1875 37.015625 41.984375 42.703125 
Q 37.796875 48.390625 30.609375 48.390625 
z
M 30.609375 56 
Q 42.328125 56 49.015625 48.375 
Q 55.71875 40.765625 55.71875 27.296875 
Q 55.71875 13.875 49.015625 6.21875 
Q 42.328125 -1.421875 30.609375 -1.421875 
Q 18.84375 -1.421875 12.171875 6.21875 
Q 5.515625 13.875 5.515625 27.296875 
Q 5.515625 40.765625 12.171875 48.375 
Q 18.84375 56 30.609375 56 
z
" id="DejaVuSans-111"/>
      <path d="M 45.40625 46.390625 
L 45.40625 75.984375 
L 54.390625 75.984375 
L 54.390625 0 
L 45.40625 0 
L 45.40625 8.203125 
Q 42.578125 3.328125 38.25 0.953125 
Q 33.9375 -1.421875 27.875 -1.421875 
Q 17.96875 -1.421875 11.734375 6.484375 
Q 5.515625 14.40625 5.515625 27.296875 
Q 5.515625 40.1875 11.734375 48.09375 
Q 17.96875 56 27.875 56 
Q 33.9375 56 38.25 53.625 
Q 42.578125 51.265625 45.40625 46.390625 
z
M 14.796875 27.296875 
Q 14.796875 17.390625 18.875 11.75 
Q 22.953125 6.109375 30.078125 6.109375 
Q 37.203125 6.109375 41.296875 11.75 
Q 45.40625 17.390625 45.40625 27.296875 
Q 45.40625 37.203125 41.296875 42.84375 
Q 37.203125 48.484375 30.078125 48.484375 
Q 22.953125 48.484375 18.875 42.84375 
Q 14.796875 37.203125 14.796875 27.296875 
z
" id="DejaVuSans-100"/>
      <path d="M 48.78125 52.59375 
L 48.78125 44.1875 
Q 44.96875 46.296875 41.140625 47.34375 
Q 37.3125 48.390625 33.40625 48.390625 
Q 24.65625 48.390625 19.8125 42.84375 
Q 14.984375 37.3125 14.984375 27.296875 
Q 14.984375 17.28125 19.8125 11.734375 
Q 24.65625 6.203125 33.40625 6.203125 
Q 37.3125 6.203125 41.140625 7.25 
Q 44.96875 8.296875 48.78125 10.40625 
L 48.78125 2.09375 
Q 45.015625 0.34375 40.984375 -0.53125 
Q 36.96875 -1.421875 32.421875 -1.421875 
Q 20.0625 -1.421875 12.78125 6.34375 
Q 5.515625 14.109375 5.515625 27.296875 
Q 5.515625 40.671875 12.859375 48.328125 
Q 20.21875 56 33.015625 56 
Q 37.15625 56 41.109375 55.140625 
Q 45.0625 54.296875 48.78125 52.59375 
z
" id="DejaVuSans-99"/>
      <path id="DejaVuSans-32"/>
      <path d="M 41.109375 46.296875 
Q 39.59375 47.171875 37.8125 47.578125 
Q 36.03125 48 33.890625 48 
Q 26.265625 48 22.1875 43.046875 
Q 18.109375 38.09375 18.109375 28.8125 
L 18.109375 0 
L 9.078125 0 
L 9.078125 54.6875 
L 18.109375 54.6875 
L 18.109375 46.1875 
Q 20.953125 51.171875 25.484375 53.578125 
Q 30.03125 56 36.53125 56 
Q 37.453125 56 38.578125 55.875 
Q 39.703125 55.765625 41.0625 55.515625 
z
" id="DejaVuSans-114"/>
      <path d="M 4.203125 54.6875 
L 13.1875 54.6875 
L 24.421875 12.015625 
L 35.59375 54.6875 
L 46.1875 54.6875 
L 57.421875 12.015625 
L 68.609375 54.6875 
L 77.59375 54.6875 
L 63.28125 0 
L 52.6875 0 
L 40.921875 44.828125 
L 29.109375 0 
L 18.5 0 
z
" id="DejaVuSans-119"/>
      <path d="M 31 75.875 
Q 24.46875 64.65625 21.28125 53.65625 
Q 18.109375 42.671875 18.109375 31.390625 
Q 18.109375 20.125 21.3125 9.0625 
Q 24.515625 -2 31 -13.1875 
L 23.1875 -13.1875 
Q 15.875 -1.703125 12.234375 9.375 
Q 8.59375 20.453125 8.59375 31.390625 
Q 8.59375 42.28125 12.203125 53.3125 
Q 15.828125 64.359375 23.1875 75.875 
z
" id="DejaVuSans-40"/>
      <path d="M 18.3125 70.21875 
L 18.3125 54.6875 
L 36.8125 54.6875 
L 36.8125 47.703125 
L 18.3125 47.703125 
L 18.3125 18.015625 
Q 18.3125 11.328125 20.140625 9.421875 
Q 21.96875 7.515625 27.59375 7.515625 
L 36.8125 7.515625 
L 36.8125 0 
L 27.59375 0 
Q 17.1875 0 13.234375 3.875 
Q 9.28125 7.765625 9.28125 18.015625 
L 9.28125 47.703125 
L 2.6875 47.703125 
L 2.6875 54.6875 
L 9.28125 54.6875 
L 9.28125 70.21875 
z
" id="DejaVuSans-116"/>
      <path d="M 8.5 21.578125 
L 8.5 54.6875 
L 17.484375 54.6875 
L 17.484375 21.921875 
Q 17.484375 14.15625 20.5 10.265625 
Q 23.53125 6.390625 29.59375 6.390625 
Q 36.859375 6.390625 41.078125 11.03125 
Q 45.3125 15.671875 45.3125 23.6875 
L 45.3125 54.6875 
L 54.296875 54.6875 
L 54.296875 0 
L 45.3125 0 
L 45.3125 8.40625 
Q 42.046875 3.421875 37.71875 1 
Q 33.40625 -1.421875 27.6875 -1.421875 
Q 18.265625 -1.421875 13.375 4.4375 
Q 8.5 10.296875 8.5 21.578125 
z
M 31.109375 56 
z
" id="DejaVuSans-117"/>
      <path d="M 8.015625 75.875 
L 15.828125 75.875 
Q 23.140625 64.359375 26.78125 53.3125 
Q 30.421875 42.28125 30.421875 31.390625 
Q 30.421875 20.453125 26.78125 9.375 
Q 23.140625 -1.703125 15.828125 -13.1875 
L 8.015625 -13.1875 
Q 14.5 -2 17.703125 9.0625 
Q 20.90625 20.125 20.90625 31.390625 
Q 20.90625 42.671875 17.703125 53.65625 
Q 14.5 64.65625 8.015625 75.875 
z
" id="DejaVuSans-41"/>
     </defs>
     <g transform="translate(22.254687 230.080344)rotate(-90)scale(0.1 -0.1)">
      <use xlink:href="#DejaVuSans-69"/>
      <use x="63.183594" xlink:href="#DejaVuSans-112"/>
      <use x="126.660156" xlink:href="#DejaVuSans-105"/>
      <use x="154.443359" xlink:href="#DejaVuSans-115"/>
      <use x="206.542969" xlink:href="#DejaVuSans-111"/>
      <use x="267.724609" xlink:href="#DejaVuSans-100"/>
      <use x="331.201172" xlink:href="#DejaVuSans-105"/>
      <use x="358.984375" xlink:href="#DejaVuSans-99"/>
      <use x="413.964844" xlink:href="#DejaVuSans-32"/>
      <use x="445.751953" xlink:href="#DejaVuSans-114"/>
      <use x="486.833984" xlink:href="#DejaVuSans-101"/>
      <use x="548.357422" xlink:href="#DejaVuSans-119"/>
      <use x="630.144531" xlink:href="#DejaVuSans-97"/>
      <use x="691.423828" xlink:href="#DejaVuSans-114"/>
      <use x="732.521484" xlink:href="#DejaVuSans-100"/>
      <use x="795.998047" xlink:href="#DejaVuSans-32"/>
      <use x="827.785156" xlink:href="#DejaVuSans-40"/>
      <use x="866.798828" xlink:href="#DejaVuSans-116"/>
      <use x="906.007812" xlink:href="#DejaVuSans-114"/>
      <use x="947.121094" xlink:href="#DejaVuSans-117"/>
      <use x="1010.5" xlink:href="#DejaVuSans-101"/>
      <use x="1072.023438" xlink:href="#DejaVuSans-41"/>
     </g>
    </g>
   </g>
   <g id="line2d_18">
    <path clip-path="url(#p676c6d5e0f)" d="M 73.832727 271.296 
L 74.29952 271.296 
L 74.532917 283.392 
L 74.766313 271.296 
L 74.99971 295.488 
L 75.233106 259.2 
L 75.466503 283.392 
L 75.699899 283.392 
L 75.933296 259.2 
L 76.166692 271.296 
L 76.400089 295.488 
L 76.633485 295.488 
L 76.866882 271.296 
L 77.100278 283.392 
L 77.333675 271.296 
L 77.567071 271.296 
L 77.800468 295.488 
L 78.500657 295.488 
L 78.96745 271.296 
L 79.200847 271.296 
L 79.434244 283.392 
L 79.66764 271.296 
L 79.901037 295.488 
L 80.36783 295.488 
L 80.601226 271.296 
L 80.834623 259.2 
L 81.068019 222.912 
L 81.301416 271.296 
L 81.768209 295.488 
L 82.001605 271.296 
L 82.235002 283.392 
L 82.701795 283.392 
L 82.935191 271.296 
L 83.168588 295.488 
L 83.401984 295.488 
L 83.868777 271.296 
L 84.102174 271.296 
L 84.33557 283.392 
L 84.568967 259.2 
L 84.802363 271.296 
L 85.03576 271.296 
L 85.269156 283.392 
L 85.502553 271.296 
L 85.969346 271.296 
L 86.202742 283.392 
L 86.436139 271.296 
L 86.902932 271.296 
L 87.136328 283.392 
L 87.836518 283.392 
L 88.303311 259.2 
L 88.770104 283.392 
L 89.0035 259.2 
L 89.236897 271.296 
L 89.470293 271.296 
L 89.70369 283.392 
L 89.937086 271.296 
L 90.170483 247.104 
L 90.403879 271.296 
L 90.637276 271.296 
L 90.870673 283.392 
L 91.104069 235.008 
L 91.337466 259.2 
L 91.570862 271.296 
L 91.804259 259.2 
L 92.037655 235.008 
L 92.271052 283.392 
L 92.504448 271.296 
L 92.737845 271.296 
L 92.971241 259.2 
L 93.204638 235.008 
L 93.671431 295.488 
L 93.904827 283.392 
L 94.138224 222.912 
L 94.37162 235.008 
L 94.605017 283.392 
L 94.838413 235.008 
L 95.07181 222.912 
L 95.305206 247.104 
L 95.538603 235.008 
L 95.771999 271.296 
L 96.005396 283.392 
L 96.472189 210.816 
L 96.705585 235.008 
L 96.938982 247.104 
L 97.172378 271.296 
L 97.405775 235.008 
L 97.639171 247.104 
L 97.872568 247.104 
L 98.105964 259.2 
L 98.339361 283.392 
L 98.572757 210.816 
L 98.806154 235.008 
L 99.03955 235.008 
L 99.272947 271.296 
L 99.506343 247.104 
L 99.73974 271.296 
L 99.973136 235.008 
L 100.206533 259.2 
L 100.439929 210.816 
L 100.673326 198.72 
L 100.906722 247.104 
L 101.140119 222.912 
L 101.373515 259.2 
L 101.606912 247.104 
L 101.840308 222.912 
L 102.073705 259.2 
L 102.307101 247.104 
L 102.540498 210.816 
L 102.773895 259.2 
L 103.240688 259.2 
L 103.474084 247.104 
L 103.707481 259.2 
L 103.940877 259.2 
L 104.174274 222.912 
L 104.40767 247.104 
L 104.641067 259.2 
L 104.874463 222.912 
L 105.10786 247.104 
L 105.341256 198.72 
L 105.574653 210.816 
L 105.808049 271.296 
L 106.041446 283.392 
L 106.508239 198.72 
L 106.975032 247.104 
L 107.208428 210.816 
L 107.441825 222.912 
L 107.675221 271.296 
L 107.908618 247.104 
L 108.142014 247.104 
L 108.375411 222.912 
L 108.608807 235.008 
L 108.842204 259.2 
L 109.0756 198.72 
L 109.308997 259.2 
L 109.542393 186.624 
L 110.009186 259.2 
L 110.242583 198.72 
L 110.475979 271.296 
L 110.709376 235.008 
L 110.942772 235.008 
L 111.176169 247.104 
L 111.409565 198.72 
L 111.642962 235.008 
L 111.876358 198.72 
L 112.109755 247.104 
L 112.343151 235.008 
L 112.576548 198.72 
L 113.043341 271.296 
L 113.276737 235.008 
L 113.510134 247.104 
L 113.976927 222.912 
L 114.210324 198.72 
L 114.44372 210.816 
L 114.677117 210.816 
L 114.910513 222.912 
L 115.14391 247.104 
L 115.377306 210.816 
L 115.610703 271.296 
L 115.844099 198.72 
L 116.077496 235.008 
L 116.310892 222.912 
L 116.544289 186.624 
L 116.777685 198.72 
L 117.011082 235.008 
L 117.244478 222.912 
L 117.477875 247.104 
L 117.711271 247.104 
L 117.944668 210.816 
L 118.178064 271.296 
L 118.411461 235.008 
L 118.644857 247.104 
L 118.878254 222.912 
L 119.11165 235.008 
L 119.345047 222.912 
L 119.578443 235.008 
L 119.81184 210.816 
L 120.045236 210.816 
L 120.278633 235.008 
L 120.512029 247.104 
L 120.745426 247.104 
L 120.978822 222.912 
L 121.212219 222.912 
L 121.445615 259.2 
L 121.679012 259.2 
L 121.912408 198.72 
L 122.379201 259.2 
L 122.612598 247.104 
L 122.845994 247.104 
L 123.079391 235.008 
L 123.312787 186.624 
L 123.546184 222.912 
L 123.77958 210.816 
L 124.012977 235.008 
L 124.246373 235.008 
L 124.47977 222.912 
L 124.713166 235.008 
L 124.946563 259.2 
L 125.179959 222.912 
L 125.413356 259.2 
L 125.646752 186.624 
L 125.880149 259.2 
L 126.113546 198.72 
L 126.346942 222.912 
L 126.813735 247.104 
L 127.047132 198.72 
L 127.280528 222.912 
L 127.513925 235.008 
L 127.747321 174.528 
L 127.980718 247.104 
L 128.214114 235.008 
L 128.447511 271.296 
L 128.680907 222.912 
L 128.914304 247.104 
L 129.1477 198.72 
L 129.381097 259.2 
L 129.614493 210.816 
L 129.84789 210.816 
L 130.081286 235.008 
L 130.314683 222.912 
L 130.548079 259.2 
L 130.781476 247.104 
L 131.014872 271.296 
L 131.248269 259.2 
L 131.481665 222.912 
L 131.715062 247.104 
L 131.948458 235.008 
L 132.181855 235.008 
L 132.648648 210.816 
L 133.115441 259.2 
L 133.348837 247.104 
L 133.582234 271.296 
L 133.81563 283.392 
L 134.049027 235.008 
L 134.282423 247.104 
L 134.51582 222.912 
L 134.749216 222.912 
L 135.216009 283.392 
L 135.449406 210.816 
L 135.682802 235.008 
L 135.916199 210.816 
L 136.149595 247.104 
L 136.382992 222.912 
L 136.616388 210.816 
L 136.849785 247.104 
L 137.083181 247.104 
L 137.316578 259.2 
L 137.549975 247.104 
L 137.783371 198.72 
L 138.016768 235.008 
L 138.483561 235.008 
L 138.950354 259.2 
L 139.18375 198.72 
L 139.417147 198.72 
L 139.88394 247.104 
L 140.117336 259.2 
L 140.350733 247.104 
L 140.584129 198.72 
L 140.817526 247.104 
L 141.050922 222.912 
L 141.284319 247.104 
L 141.517715 235.008 
L 141.984508 235.008 
L 142.451301 259.2 
L 142.684698 247.104 
L 142.918094 247.104 
L 143.384887 198.72 
L 143.618284 247.104 
L 143.85168 235.008 
L 144.085077 271.296 
L 144.318473 198.72 
L 144.55187 210.816 
L 144.785266 247.104 
L 145.018663 259.2 
L 145.485456 198.72 
L 145.718852 247.104 
L 145.952249 247.104 
L 146.185645 235.008 
L 146.419042 186.624 
L 146.652438 210.816 
L 146.885835 247.104 
L 147.119231 198.72 
L 147.352628 259.2 
L 147.586024 235.008 
L 147.819421 222.912 
L 148.052817 235.008 
L 148.286214 222.912 
L 148.51961 235.008 
L 148.753007 162.432 
L 148.986404 198.72 
L 149.2198 198.72 
L 149.453197 210.816 
L 149.686593 198.72 
L 149.91999 222.912 
L 150.153386 222.912 
L 150.386783 174.528 
L 150.620179 210.816 
L 151.086972 210.816 
L 151.320369 259.2 
L 151.553765 271.296 
L 151.787162 222.912 
L 152.020558 283.392 
L 152.253955 222.912 
L 152.487351 259.2 
L 152.720748 247.104 
L 152.954144 210.816 
L 153.187541 247.104 
L 153.420937 235.008 
L 153.654334 210.816 
L 153.88773 259.2 
L 154.354523 235.008 
L 154.58792 235.008 
L 154.821316 259.2 
L 155.054713 235.008 
L 155.288109 247.104 
L 155.521506 222.912 
L 155.754902 222.912 
L 155.988299 210.816 
L 156.221695 271.296 
L 156.455092 247.104 
L 156.688488 198.72 
L 156.921885 222.912 
L 157.155281 222.912 
L 157.388678 247.104 
L 157.622074 235.008 
L 157.855471 259.2 
L 158.322264 198.72 
L 158.55566 210.816 
L 158.789057 259.2 
L 159.022453 198.72 
L 159.25585 222.912 
L 159.489246 198.72 
L 159.722643 186.624 
L 159.956039 210.816 
L 160.189436 271.296 
L 160.656229 247.104 
L 160.889626 198.72 
L 161.123022 247.104 
L 161.356419 259.2 
L 161.589815 235.008 
L 161.823212 222.912 
L 162.056608 186.624 
L 162.290005 210.816 
L 162.523401 259.2 
L 162.756798 235.008 
L 163.223591 210.816 
L 163.690384 210.816 
L 163.92378 198.72 
L 164.157177 174.528 
L 164.390573 222.912 
L 164.62397 247.104 
L 164.857366 235.008 
L 165.090763 162.432 
L 165.324159 222.912 
L 165.557556 235.008 
L 165.790952 259.2 
L 166.024349 235.008 
L 166.257745 235.008 
L 166.491142 247.104 
L 166.724538 186.624 
L 166.957935 247.104 
L 167.191331 259.2 
L 167.424728 259.2 
L 167.658124 235.008 
L 167.891521 150.336 
L 168.124917 235.008 
L 168.358314 210.816 
L 168.59171 222.912 
L 168.825107 174.528 
L 169.058503 247.104 
L 169.2919 247.104 
L 169.525296 198.72 
L 169.758693 198.72 
L 169.992089 235.008 
L 170.225486 186.624 
L 170.458882 247.104 
L 170.692279 210.816 
L 170.925675 235.008 
L 171.159072 222.912 
L 171.392468 235.008 
L 171.625865 235.008 
L 171.859261 222.912 
L 172.092658 235.008 
L 172.326055 222.912 
L 172.559451 222.912 
L 172.792848 210.816 
L 173.026244 235.008 
L 173.259641 210.816 
L 173.493037 247.104 
L 173.726434 186.624 
L 174.193227 259.2 
L 174.426623 210.816 
L 174.66002 247.104 
L 174.893416 198.72 
L 175.126813 247.104 
L 175.360209 162.432 
L 175.593606 235.008 
L 175.827002 271.296 
L 176.060399 247.104 
L 176.293795 247.104 
L 176.527192 235.008 
L 176.993985 162.432 
L 177.227381 222.912 
L 177.460778 186.624 
L 177.694174 295.488 
L 177.927571 222.912 
L 178.160967 247.104 
L 178.394364 198.72 
L 178.62776 259.2 
L 178.861157 235.008 
L 179.094553 259.2 
L 179.561346 198.72 
L 179.794743 198.72 
L 180.261536 271.296 
L 180.494932 259.2 
L 180.728329 271.296 
L 180.961725 235.008 
L 181.195122 259.2 
L 181.428518 210.816 
L 181.661915 222.912 
L 181.895311 247.104 
L 182.128708 235.008 
L 182.362104 259.2 
L 182.595501 235.008 
L 182.828897 247.104 
L 183.062294 186.624 
L 183.529087 259.2 
L 183.99588 198.72 
L 184.229277 222.912 
L 184.462673 198.72 
L 184.69607 222.912 
L 184.929466 271.296 
L 185.162863 138.24 
L 185.629656 271.296 
L 185.863052 247.104 
L 186.096449 186.624 
L 186.329845 259.2 
L 186.563242 222.912 
L 186.796638 247.104 
L 187.030035 247.104 
L 187.263431 186.624 
L 187.496828 259.2 
L 187.730224 186.624 
L 187.963621 235.008 
L 188.197017 247.104 
L 188.430414 235.008 
L 188.66381 259.2 
L 188.897207 247.104 
L 189.130603 271.296 
L 189.364 247.104 
L 189.597396 198.72 
L 189.830793 222.912 
L 190.297586 247.104 
L 190.530982 295.488 
L 190.997775 222.912 
L 191.231172 247.104 
L 191.464568 198.72 
L 191.697965 186.624 
L 191.931361 259.2 
L 192.164758 222.912 
L 192.398154 150.336 
L 192.631551 174.528 
L 192.864947 235.008 
L 193.098344 247.104 
L 193.33174 235.008 
L 193.565137 210.816 
L 193.798533 247.104 
L 194.03193 235.008 
L 194.265326 259.2 
L 194.498723 186.624 
L 194.732119 210.816 
L 194.965516 283.392 
L 195.198912 247.104 
L 195.432309 259.2 
L 195.665706 210.816 
L 196.132499 271.296 
L 196.365895 247.104 
L 196.599292 210.816 
L 196.832688 259.2 
L 197.066085 271.296 
L 197.299481 186.624 
L 197.532878 247.104 
L 197.766274 259.2 
L 197.999671 247.104 
L 198.233067 247.104 
L 198.466464 235.008 
L 198.69986 247.104 
L 198.933257 247.104 
L 199.166653 162.432 
L 199.40005 235.008 
L 199.633446 174.528 
L 199.866843 259.2 
L 200.100239 186.624 
L 200.333636 174.528 
L 200.567032 247.104 
L 200.800429 222.912 
L 201.033825 247.104 
L 201.267222 210.816 
L 201.500618 210.816 
L 201.734015 247.104 
L 201.967411 222.912 
L 202.200808 247.104 
L 202.434204 259.2 
L 202.667601 186.624 
L 202.900997 222.912 
L 203.134394 198.72 
L 203.36779 247.104 
L 203.601187 222.912 
L 203.834583 222.912 
L 204.06798 259.2 
L 204.301376 222.912 
L 204.534773 222.912 
L 204.768169 247.104 
L 205.001566 174.528 
L 205.234962 222.912 
L 205.468359 150.336 
L 205.701755 162.432 
L 205.935152 259.2 
L 206.168548 198.72 
L 206.401945 198.72 
L 206.635341 138.24 
L 206.868738 247.104 
L 207.102135 210.816 
L 207.335531 222.912 
L 207.568928 186.624 
L 208.035721 210.816 
L 208.269117 174.528 
L 208.502514 235.008 
L 208.73591 198.72 
L 208.969307 222.912 
L 209.202703 174.528 
L 209.4361 150.336 
L 209.669496 138.24 
L 209.902893 210.816 
L 210.136289 198.72 
L 210.369686 222.912 
L 210.603082 222.912 
L 210.836479 271.296 
L 211.069875 162.432 
L 211.303272 235.008 
L 211.536668 162.432 
L 211.770065 271.296 
L 212.003461 162.432 
L 212.236858 198.72 
L 212.470254 186.624 
L 212.703651 247.104 
L 212.937047 222.912 
L 213.170444 174.528 
L 213.40384 198.72 
L 213.637237 138.24 
L 213.870633 150.336 
L 214.10403 222.912 
L 214.337426 162.432 
L 214.570823 222.912 
L 214.804219 198.72 
L 215.037616 162.432 
L 215.271012 259.2 
L 215.504409 222.912 
L 215.737805 222.912 
L 215.971202 174.528 
L 216.437995 247.104 
L 216.671391 210.816 
L 216.904788 198.72 
L 217.371581 271.296 
L 217.604977 247.104 
L 217.838374 198.72 
L 218.305167 150.336 
L 218.538563 247.104 
L 218.77196 114.048 
L 219.005357 174.528 
L 219.238753 174.528 
L 219.47215 247.104 
L 219.705546 247.104 
L 219.938943 162.432 
L 220.172339 222.912 
L 220.639132 198.72 
L 220.872529 235.008 
L 221.105925 198.72 
L 221.339322 198.72 
L 221.572718 222.912 
L 222.039511 247.104 
L 222.506304 162.432 
L 222.739701 247.104 
L 222.973097 198.72 
L 223.43989 247.104 
L 223.673287 247.104 
L 223.906683 222.912 
L 224.14008 222.912 
L 224.373476 210.816 
L 224.606873 235.008 
L 224.840269 247.104 
L 225.073666 235.008 
L 225.307062 210.816 
L 225.540459 210.816 
L 225.773855 150.336 
L 226.007252 247.104 
L 226.240648 247.104 
L 226.474045 186.624 
L 226.707441 235.008 
L 226.940838 138.24 
L 227.174234 222.912 
L 227.407631 174.528 
L 227.641027 235.008 
L 227.874424 235.008 
L 228.10782 198.72 
L 228.341217 222.912 
L 228.574613 174.528 
L 228.80801 222.912 
L 229.041406 235.008 
L 229.274803 210.816 
L 229.508199 150.336 
L 229.974992 247.104 
L 230.208389 186.624 
L 230.675182 186.624 
L 230.908579 259.2 
L 231.141975 247.104 
L 231.375372 259.2 
L 231.608768 162.432 
L 231.842165 235.008 
L 232.075561 235.008 
L 232.308958 247.104 
L 232.542354 198.72 
L 232.775751 247.104 
L 233.009147 235.008 
L 233.242544 247.104 
L 233.47594 247.104 
L 233.709337 186.624 
L 233.942733 247.104 
L 234.17613 235.008 
L 234.409526 210.816 
L 234.642923 247.104 
L 234.876319 174.528 
L 235.109716 222.912 
L 235.343112 101.952 
L 235.809905 222.912 
L 236.043302 198.72 
L 236.276698 222.912 
L 236.510095 162.432 
L 236.743491 235.008 
L 236.976888 186.624 
L 237.443681 210.816 
L 237.677077 247.104 
L 237.910474 150.336 
L 238.14387 235.008 
L 238.377267 235.008 
L 238.84406 126.144 
L 239.077456 210.816 
L 239.310853 247.104 
L 239.544249 174.528 
L 239.777646 235.008 
L 240.011042 222.912 
L 240.244439 235.008 
L 240.477835 150.336 
L 240.711232 222.912 
L 240.944628 210.816 
L 241.178025 186.624 
L 241.411421 247.104 
L 241.644818 174.528 
L 242.111611 247.104 
L 242.578404 138.24 
L 242.811801 210.816 
L 243.045197 235.008 
L 243.278594 198.72 
L 243.51199 210.816 
L 243.745387 186.624 
L 243.978783 186.624 
L 244.21218 162.432 
L 244.445576 174.528 
L 244.678973 259.2 
L 244.912369 198.72 
L 245.145766 210.816 
L 245.379162 198.72 
L 245.612559 198.72 
L 245.845955 150.336 
L 246.079352 222.912 
L 246.312748 235.008 
L 246.546145 198.72 
L 246.779541 259.2 
L 247.012938 247.104 
L 247.479731 174.528 
L 247.713127 210.816 
L 247.946524 198.72 
L 248.17992 235.008 
L 248.413317 174.528 
L 248.646713 210.816 
L 248.88011 162.432 
L 249.113506 174.528 
L 249.346903 247.104 
L 249.580299 235.008 
L 249.813696 198.72 
L 250.047092 198.72 
L 250.280489 271.296 
L 250.747282 126.144 
L 250.980678 186.624 
L 251.214075 162.432 
L 251.447471 174.528 
L 251.680868 210.816 
L 251.914264 222.912 
L 252.147661 210.816 
L 252.381057 222.912 
L 252.614454 174.528 
L 252.84785 186.624 
L 253.081247 162.432 
L 253.314643 235.008 
L 253.54804 235.008 
L 253.781437 222.912 
L 254.014833 198.72 
L 254.24823 222.912 
L 254.715023 247.104 
L 254.948419 174.528 
L 255.181816 235.008 
L 255.415212 186.624 
L 255.648609 162.432 
L 255.882005 162.432 
L 256.115402 198.72 
L 256.348798 174.528 
L 256.582195 186.624 
L 256.815591 259.2 
L 257.048988 222.912 
L 257.282384 222.912 
L 257.515781 162.432 
L 257.749177 174.528 
L 257.982574 210.816 
L 258.21597 198.72 
L 258.449367 162.432 
L 258.682763 186.624 
L 258.91616 271.296 
L 259.149556 210.816 
L 259.382953 222.912 
L 259.616349 271.296 
L 259.849746 162.432 
L 260.083142 162.432 
L 260.316539 138.24 
L 260.549935 210.816 
L 260.783332 247.104 
L 261.016728 235.008 
L 261.250125 247.104 
L 261.483521 186.624 
L 261.716918 198.72 
L 261.950314 186.624 
L 262.417107 210.816 
L 262.650504 259.2 
L 262.8839 198.72 
L 263.117297 259.2 
L 263.350693 150.336 
L 263.817486 210.816 
L 264.050883 235.008 
L 264.284279 247.104 
L 264.517676 235.008 
L 264.751072 138.24 
L 264.984469 235.008 
L 265.217865 210.816 
L 265.451262 210.816 
L 265.684659 222.912 
L 265.918055 198.72 
L 266.151452 138.24 
L 266.384848 138.24 
L 266.618245 186.624 
L 266.851641 150.336 
L 267.085038 150.336 
L 267.318434 138.24 
L 267.551831 210.816 
L 267.785227 186.624 
L 268.485417 222.912 
L 268.95221 271.296 
L 269.185606 259.2 
L 269.419003 126.144 
L 269.652399 210.816 
L 269.885796 174.528 
L 270.119192 247.104 
L 270.352589 186.624 
L 270.585985 174.528 
L 270.819382 222.912 
L 271.052778 198.72 
L 271.286175 210.816 
L 271.519571 150.336 
L 271.752968 186.624 
L 271.986364 126.144 
L 272.219761 174.528 
L 272.453157 174.528 
L 272.686554 150.336 
L 272.91995 198.72 
L 273.153347 210.816 
L 273.386743 210.816 
L 273.62014 235.008 
L 273.853536 222.912 
L 274.086933 186.624 
L 274.320329 126.144 
L 274.553726 114.048 
L 274.787122 247.104 
L 275.020519 222.912 
L 275.253915 222.912 
L 275.487312 89.856 
L 275.720708 235.008 
L 275.954105 222.912 
L 276.187501 126.144 
L 276.420898 259.2 
L 276.654294 259.2 
L 276.887691 162.432 
L 277.121088 186.624 
L 277.354484 162.432 
L 277.587881 162.432 
L 277.821277 174.528 
L 278.054674 235.008 
L 278.28807 150.336 
L 278.521467 174.528 
L 278.754863 89.856 
L 278.98826 247.104 
L 279.221656 198.72 
L 279.455053 186.624 
L 279.688449 235.008 
L 279.921846 222.912 
L 280.155242 235.008 
L 280.622035 186.624 
L 280.855432 138.24 
L 281.088828 162.432 
L 281.322225 222.912 
L 281.555621 222.912 
L 281.789018 259.2 
L 282.022414 150.336 
L 282.255811 174.528 
L 282.489207 222.912 
L 282.722604 174.528 
L 283.422793 210.816 
L 283.65619 235.008 
L 283.889586 247.104 
L 284.122983 174.528 
L 284.356379 247.104 
L 284.589776 210.816 
L 284.823172 247.104 
L 285.056569 150.336 
L 285.289965 210.816 
L 285.523362 174.528 
L 285.756758 174.528 
L 285.990155 150.336 
L 286.223551 222.912 
L 286.456948 222.912 
L 286.690344 198.72 
L 286.923741 138.24 
L 287.157137 210.816 
L 287.62393 235.008 
L 288.090723 186.624 
L 288.32412 222.912 
L 288.557517 186.624 
L 288.790913 222.912 
L 289.02431 198.72 
L 289.257706 150.336 
L 289.491103 186.624 
L 289.724499 259.2 
L 289.957896 235.008 
L 290.191292 247.104 
L 290.424689 222.912 
L 290.658085 235.008 
L 290.891482 186.624 
L 291.124878 198.72 
L 291.358275 162.432 
L 291.591671 162.432 
L 291.825068 283.392 
L 292.058464 198.72 
L 292.291861 222.912 
L 292.525257 126.144 
L 292.758654 235.008 
L 292.99205 210.816 
L 293.225447 247.104 
L 293.458843 210.816 
L 293.69224 247.104 
L 294.159033 174.528 
L 294.392429 198.72 
L 294.625826 198.72 
L 294.859222 174.528 
L 295.092619 247.104 
L 295.326015 101.952 
L 295.559412 174.528 
L 295.792808 186.624 
L 296.026205 101.952 
L 296.259601 198.72 
L 296.492998 222.912 
L 296.726394 138.24 
L 296.959791 198.72 
L 297.193187 186.624 
L 297.426584 198.72 
L 297.65998 162.432 
L 297.893377 210.816 
L 298.126773 210.816 
L 298.36017 162.432 
L 298.593566 198.72 
L 299.060359 150.336 
L 299.293756 186.624 
L 299.527152 150.336 
L 299.760549 150.336 
L 299.993945 186.624 
L 300.227342 247.104 
L 300.460739 126.144 
L 300.694135 162.432 
L 300.927532 247.104 
L 301.160928 126.144 
L 301.394325 235.008 
L 301.627721 247.104 
L 301.861118 174.528 
L 302.094514 186.624 
L 302.327911 162.432 
L 302.561307 174.528 
L 303.0281 174.528 
L 303.261497 247.104 
L 303.494893 162.432 
L 303.72829 235.008 
L 304.195083 174.528 
L 304.428479 198.72 
L 304.661876 210.816 
L 304.895272 271.296 
L 305.128669 138.24 
L 305.595462 222.912 
L 305.828858 198.72 
L 306.062255 89.856 
L 306.295651 198.72 
L 306.529048 174.528 
L 306.762444 235.008 
L 306.995841 150.336 
L 307.229237 198.72 
L 307.462634 210.816 
L 308.162823 174.528 
L 308.39622 235.008 
L 308.629616 222.912 
L 308.863013 198.72 
L 309.096409 162.432 
L 309.329806 186.624 
L 309.563202 114.048 
L 309.796599 186.624 
L 310.029995 126.144 
L 310.263392 198.72 
L 310.496788 174.528 
L 310.730185 186.624 
L 310.963581 174.528 
L 311.196978 89.856 
L 311.430374 138.24 
L 311.663771 210.816 
L 311.897168 114.048 
L 312.130564 198.72 
L 312.363961 101.952 
L 312.597357 198.72 
L 312.830754 186.624 
L 313.06415 222.912 
L 313.297547 210.816 
L 313.530943 186.624 
L 313.76434 150.336 
L 313.997736 210.816 
L 314.231133 126.144 
L 314.697926 222.912 
L 314.931322 198.72 
L 315.164719 162.432 
L 315.398115 210.816 
L 315.631512 210.816 
L 315.864908 222.912 
L 316.098305 186.624 
L 316.331701 186.624 
L 316.565098 162.432 
L 316.798494 174.528 
L 317.031891 259.2 
L 317.265287 126.144 
L 317.498684 174.528 
L 317.73208 150.336 
L 317.965477 210.816 
L 318.198873 138.24 
L 318.43227 186.624 
L 318.665666 138.24 
L 318.899063 186.624 
L 319.365856 162.432 
L 319.599252 174.528 
L 319.832649 174.528 
L 320.066045 235.008 
L 320.299442 198.72 
L 320.532838 235.008 
L 320.766235 150.336 
L 320.999631 235.008 
L 321.233028 198.72 
L 321.466424 198.72 
L 321.699821 186.624 
L 321.933217 210.816 
L 322.166614 150.336 
L 322.40001 150.336 
L 322.866803 174.528 
L 323.1002 101.952 
L 323.333596 247.104 
L 323.566993 126.144 
L 323.80039 259.2 
L 324.033786 271.296 
L 324.267183 150.336 
L 324.500579 271.296 
L 324.733976 210.816 
L 325.200769 210.816 
L 325.667562 101.952 
L 325.900958 150.336 
L 326.134355 222.912 
L 326.367751 247.104 
L 326.834544 150.336 
L 327.067941 138.24 
L 327.301337 174.528 
L 327.534734 174.528 
L 327.76813 247.104 
L 328.001527 162.432 
L 328.234923 259.2 
L 328.46832 247.104 
L 328.701716 138.24 
L 328.935113 162.432 
L 329.168509 150.336 
L 329.401906 162.432 
L 329.635302 235.008 
L 329.868699 162.432 
L 330.102095 126.144 
L 330.335492 162.432 
L 330.568888 235.008 
L 331.035681 150.336 
L 331.269078 162.432 
L 331.735871 114.048 
L 331.969267 235.008 
L 332.43606 126.144 
L 332.669457 138.24 
L 332.902853 247.104 
L 333.13625 271.296 
L 333.369646 162.432 
L 333.603043 210.816 
L 333.836439 198.72 
L 334.303232 126.144 
L 334.770025 150.336 
L 335.003422 101.952 
L 335.236819 222.912 
L 335.470215 222.912 
L 335.937008 126.144 
L 336.170405 186.624 
L 336.403801 150.336 
L 336.637198 53.568 
L 336.870594 174.528 
L 337.103991 210.816 
L 337.337387 198.72 
L 337.570784 222.912 
L 337.80418 186.624 
L 338.037577 222.912 
L 338.270973 162.432 
L 338.50437 162.432 
L 338.737766 150.336 
L 338.971163 174.528 
L 339.204559 235.008 
L 339.437956 138.24 
L 339.671352 198.72 
L 339.904749 138.24 
L 340.138145 162.432 
L 340.371542 259.2 
L 340.838335 162.432 
L 341.071731 186.624 
L 341.305128 174.528 
L 341.538524 114.048 
L 341.771921 235.008 
L 342.005317 198.72 
L 342.238714 186.624 
L 342.47211 235.008 
L 343.1723 235.008 
L 343.405696 222.912 
L 343.872489 222.912 
L 344.105886 198.72 
L 344.339282 235.008 
L 344.572679 186.624 
L 344.806075 198.72 
L 345.039472 174.528 
L 345.272868 186.624 
L 345.506265 259.2 
L 345.739661 198.72 
L 345.973058 174.528 
L 346.206454 222.912 
L 346.439851 222.912 
L 346.673248 186.624 
L 346.906644 210.816 
L 347.140041 247.104 
L 347.373437 138.24 
L 347.606834 222.912 
L 347.84023 198.72 
L 348.073627 235.008 
L 348.307023 126.144 
L 348.54042 235.008 
L 348.773816 174.528 
L 349.007213 210.816 
L 349.240609 210.816 
L 349.474006 198.72 
L 349.707402 235.008 
L 349.940799 126.144 
L 350.174195 271.296 
L 350.407592 235.008 
L 350.874385 210.816 
L 351.107781 162.432 
L 351.341178 162.432 
L 351.807971 114.048 
L 352.041367 210.816 
L 352.274764 259.2 
L 352.974953 126.144 
L 353.20835 186.624 
L 353.441746 162.432 
L 353.675143 198.72 
L 353.908539 198.72 
L 354.141936 162.432 
L 354.375332 210.816 
L 354.608729 162.432 
L 354.842125 174.528 
L 355.075522 174.528 
L 355.308918 210.816 
L 355.542315 198.72 
L 355.775711 235.008 
L 356.009108 174.528 
L 356.242504 235.008 
L 356.709297 150.336 
L 356.942694 162.432 
L 357.17609 198.72 
L 357.409487 186.624 
L 357.642883 222.912 
L 357.87628 162.432 
L 358.109676 198.72 
L 358.809866 162.432 
L 359.043263 198.72 
L 359.276659 186.624 
L 359.510056 235.008 
L 359.743452 138.24 
L 359.976849 198.72 
L 360.210245 198.72 
L 360.443642 271.296 
L 360.910435 138.24 
L 361.143831 186.624 
L 361.377228 162.432 
L 361.844021 210.816 
L 362.077417 222.912 
L 362.310814 222.912 
L 362.54421 247.104 
L 362.777607 259.2 
L 363.011003 198.72 
L 363.2444 198.72 
L 363.477796 174.528 
L 363.711193 271.296 
L 363.944589 210.816 
L 364.177986 235.008 
L 364.411382 222.912 
L 364.644779 126.144 
L 364.878175 150.336 
L 365.111572 162.432 
L 365.344968 210.816 
L 365.578365 150.336 
L 365.811761 235.008 
L 366.045158 126.144 
L 366.278554 198.72 
L 366.511951 186.624 
L 366.745347 186.624 
L 366.978744 210.816 
L 367.21214 198.72 
L 367.445537 174.528 
L 367.678933 210.816 
L 367.91233 174.528 
L 368.145726 222.912 
L 368.379123 198.72 
L 368.612519 210.816 
L 368.845916 198.72 
L 369.079312 126.144 
L 369.312709 186.624 
L 369.546105 162.432 
L 369.779502 235.008 
L 370.012899 210.816 
L 370.246295 210.816 
L 370.479692 222.912 
L 370.713088 174.528 
L 370.946485 210.816 
L 371.179881 174.528 
L 371.413278 174.528 
L 371.880071 222.912 
L 372.346864 114.048 
L 372.58026 222.912 
L 372.813657 174.528 
L 373.047053 222.912 
L 373.28045 174.528 
L 373.513846 198.72 
L 373.747243 210.816 
L 373.980639 101.952 
L 374.214036 150.336 
L 374.447432 174.528 
L 374.680829 186.624 
L 374.914225 174.528 
L 375.147622 174.528 
L 375.381018 126.144 
L 375.614415 186.624 
L 375.847811 126.144 
L 376.081208 174.528 
L 376.314604 162.432 
L 376.548001 210.816 
L 376.781397 138.24 
L 377.014794 210.816 
L 377.24819 222.912 
L 377.481587 210.816 
L 377.94838 126.144 
L 378.181776 162.432 
L 378.415173 222.912 
L 378.648569 150.336 
L 378.881966 247.104 
L 379.115362 114.048 
L 379.348759 222.912 
L 379.582155 247.104 
L 379.815552 259.2 
L 380.048948 138.24 
L 380.282345 162.432 
L 380.515741 210.816 
L 380.749138 114.048 
L 380.982534 222.912 
L 381.215931 150.336 
L 381.449327 126.144 
L 381.682724 150.336 
L 381.916121 77.76 
L 382.149517 186.624 
L 382.382914 150.336 
L 382.61631 150.336 
L 382.849707 114.048 
L 383.083103 259.2 
L 383.549896 150.336 
L 383.783293 162.432 
L 384.016689 162.432 
L 384.250086 222.912 
L 384.483482 247.104 
L 384.716879 259.2 
L 384.950275 162.432 
L 385.183672 259.2 
L 385.650465 150.336 
L 385.883861 222.912 
L 386.117258 174.528 
L 386.350654 247.104 
L 386.584051 210.816 
L 386.817447 138.24 
L 387.050844 210.816 
L 387.28424 150.336 
L 387.517637 222.912 
L 387.751033 222.912 
L 387.98443 150.336 
L 388.217826 162.432 
L 388.451223 126.144 
L 388.684619 138.24 
L 389.151412 198.72 
L 389.384809 174.528 
L 389.618205 126.144 
L 389.851602 198.72 
L 390.084998 186.624 
L 390.318395 247.104 
L 390.551791 247.104 
L 390.785188 198.72 
L 391.018584 186.624 
L 391.251981 210.816 
L 391.485377 126.144 
L 391.718774 210.816 
L 391.95217 126.144 
L 392.185567 247.104 
L 392.418963 126.144 
L 392.65236 174.528 
L 392.885756 138.24 
L 393.119153 162.432 
L 393.35255 235.008 
L 393.585946 162.432 
L 394.052739 259.2 
L 394.286136 198.72 
L 394.519532 186.624 
L 394.752929 138.24 
L 394.986325 150.336 
L 395.219722 150.336 
L 395.453118 210.816 
L 395.686515 186.624 
L 395.919911 174.528 
L 396.153308 247.104 
L 396.386704 174.528 
L 396.620101 174.528 
L 396.853497 114.048 
L 397.086894 198.72 
L 397.32029 210.816 
L 397.553687 186.624 
L 397.787083 222.912 
L 398.02048 198.72 
L 398.253876 247.104 
L 398.487273 162.432 
L 398.487273 162.432 
" style="fill:none;stroke:#1f77b4;stroke-linecap:square;stroke-width:1.5;"/>
   </g>
   <g id="patch_3">
    <path d="M 57.6 307.584 
L 57.6 41.472 
" style="fill:none;stroke:#000000;stroke-linecap:square;stroke-linejoin:miter;stroke-width:0.8;"/>
   </g>
   <g id="patch_4">
    <path d="M 414.72 307.584 
L 414.72 41.472 
" style="fill:none;stroke:#000000;stroke-linecap:square;stroke-linejoin:miter;stroke-width:0.8;"/>
   </g>
   <g id="patch_5">
    <path d="M 57.6 307.584 
L 414.72 307.584 
" style="fill:none;stroke:#000000;stroke-linecap:square;stroke-linejoin:miter;stroke-width:0.8;"/>
   </g>
   <g id="patch_6">
    <path d="M 57.6 41.472 
L 414.72 41.472 
" style="fill:none;stroke:#000000;stroke-linecap:square;stroke-linejoin:miter;stroke-width:0.8;"/>
   </g>
  </g>
 </g>
 <defs>
  <clipPath id="p676c6d5e0f">
   <rect height="266.112" width="357.12" x="57.6" y="41.472"/>
  </clipPath>
 </defs>
</svg>
