<?xml version="1.0" encoding="utf-8" standalone="no"?>
<!DOCTYPE svg PUBLIC "-//W3C//DTD SVG 1.1//EN"
  "http://www.w3.org/Graphics/SVG/1.1/DTD/svg11.dtd">
<!-- Created with matplotlib (https://matplotlib.org/) -->
<svg height="345.6pt" version="1.1" viewBox="0 0 460.8 345.6" width="460.8pt" xmlns="http://www.w3.org/2000/svg" xmlns:xlink="http://www.w3.org/1999/xlink">
 <defs>
  <style type="text/css">
*{stroke-linecap:butt;stroke-linejoin:round;white-space:pre;}
  </style>
 </defs>
 <g id="figure_1">
  <g id="patch_1">
   <path d="M 0 345.6 
L 460.8 345.6 
L 460.8 0 
L 0 0 
z
" style="fill:#ffffff;"/>
  </g>
  <g id="axes_1">
   <g id="patch_2">
    <path d="M 57.6 307.584 
L 414.72 307.584 
L 414.72 41.472 
L 57.6 41.472 
z
" style="fill:#ffffff;"/>
   </g>
   <g id="matplotlib.axis_1">
    <g id="xtick_1">
     <g id="line2d_1">
      <defs>
       <path d="M 0 0 
L 0 3.5 
" id="mdd5d5489ea" style="stroke:#000000;stroke-width:0.8;"/>
      </defs>
      <g>
       <use style="stroke:#000000;stroke-width:0.8;" x="73.832727" xlink:href="#mdd5d5489ea" y="307.584"/>
      </g>
     </g>
     <g id="text_1">
      <!-- 0 -->
      <defs>
       <path d="M 31.78125 66.40625 
Q 24.171875 66.40625 20.328125 58.90625 
Q 16.5 51.421875 16.5 36.375 
Q 16.5 21.390625 20.328125 13.890625 
Q 24.171875 6.390625 31.78125 6.390625 
Q 39.453125 6.390625 43.28125 13.890625 
Q 47.125 21.390625 47.125 36.375 
Q 47.125 51.421875 43.28125 58.90625 
Q 39.453125 66.40625 31.78125 66.40625 
z
M 31.78125 74.21875 
Q 44.046875 74.21875 50.515625 64.515625 
Q 56.984375 54.828125 56.984375 36.375 
Q 56.984375 17.96875 50.515625 8.265625 
Q 44.046875 -1.421875 31.78125 -1.421875 
Q 19.53125 -1.421875 13.0625 8.265625 
Q 6.59375 17.96875 6.59375 36.375 
Q 6.59375 54.828125 13.0625 64.515625 
Q 19.53125 74.21875 31.78125 74.21875 
z
" id="DejaVuSans-48"/>
      </defs>
      <g transform="translate(70.651477 322.182437)scale(0.1 -0.1)">
       <use xlink:href="#DejaVuSans-48"/>
      </g>
     </g>
    </g>
    <g id="xtick_2">
     <g id="line2d_2">
      <g>
       <use style="stroke:#000000;stroke-width:0.8;" x="121.020888" xlink:href="#mdd5d5489ea" y="307.584"/>
      </g>
     </g>
     <g id="text_2">
      <!-- 200 -->
      <defs>
       <path d="M 19.1875 8.296875 
L 53.609375 8.296875 
L 53.609375 0 
L 7.328125 0 
L 7.328125 8.296875 
Q 12.9375 14.109375 22.625 23.890625 
Q 32.328125 33.6875 34.8125 36.53125 
Q 39.546875 41.84375 41.421875 45.53125 
Q 43.3125 49.21875 43.3125 52.78125 
Q 43.3125 58.59375 39.234375 62.25 
Q 35.15625 65.921875 28.609375 65.921875 
Q 23.96875 65.921875 18.8125 64.3125 
Q 13.671875 62.703125 7.8125 59.421875 
L 7.8125 69.390625 
Q 13.765625 71.78125 18.9375 73 
Q 24.125 74.21875 28.421875 74.21875 
Q 39.75 74.21875 46.484375 68.546875 
Q 53.21875 62.890625 53.21875 53.421875 
Q 53.21875 48.921875 51.53125 44.890625 
Q 49.859375 40.875 45.40625 35.40625 
Q 44.1875 33.984375 37.640625 27.21875 
Q 31.109375 20.453125 19.1875 8.296875 
z
" id="DejaVuSans-50"/>
      </defs>
      <g transform="translate(111.477138 322.182437)scale(0.1 -0.1)">
       <use xlink:href="#DejaVuSans-50"/>
       <use x="63.623047" xlink:href="#DejaVuSans-48"/>
       <use x="127.246094" xlink:href="#DejaVuSans-48"/>
      </g>
     </g>
    </g>
    <g id="xtick_3">
     <g id="line2d_3">
      <g>
       <use style="stroke:#000000;stroke-width:0.8;" x="168.209049" xlink:href="#mdd5d5489ea" y="307.584"/>
      </g>
     </g>
     <g id="text_3">
      <!-- 400 -->
      <defs>
       <path d="M 37.796875 64.3125 
L 12.890625 25.390625 
L 37.796875 25.390625 
z
M 35.203125 72.90625 
L 47.609375 72.90625 
L 47.609375 25.390625 
L 58.015625 25.390625 
L 58.015625 17.1875 
L 47.609375 17.1875 
L 47.609375 0 
L 37.796875 0 
L 37.796875 17.1875 
L 4.890625 17.1875 
L 4.890625 26.703125 
z
" id="DejaVuSans-52"/>
      </defs>
      <g transform="translate(158.665299 322.182437)scale(0.1 -0.1)">
       <use xlink:href="#DejaVuSans-52"/>
       <use x="63.623047" xlink:href="#DejaVuSans-48"/>
       <use x="127.246094" xlink:href="#DejaVuSans-48"/>
      </g>
     </g>
    </g>
    <g id="xtick_4">
     <g id="line2d_4">
      <g>
       <use style="stroke:#000000;stroke-width:0.8;" x="215.397209" xlink:href="#mdd5d5489ea" y="307.584"/>
      </g>
     </g>
     <g id="text_4">
      <!-- 600 -->
      <defs>
       <path d="M 33.015625 40.375 
Q 26.375 40.375 22.484375 35.828125 
Q 18.609375 31.296875 18.609375 23.390625 
Q 18.609375 15.53125 22.484375 10.953125 
Q 26.375 6.390625 33.015625 6.390625 
Q 39.65625 6.390625 43.53125 10.953125 
Q 47.40625 15.53125 47.40625 23.390625 
Q 47.40625 31.296875 43.53125 35.828125 
Q 39.65625 40.375 33.015625 40.375 
z
M 52.59375 71.296875 
L 52.59375 62.3125 
Q 48.875 64.0625 45.09375 64.984375 
Q 41.3125 65.921875 37.59375 65.921875 
Q 27.828125 65.921875 22.671875 59.328125 
Q 17.53125 52.734375 16.796875 39.40625 
Q 19.671875 43.65625 24.015625 45.921875 
Q 28.375 48.1875 33.59375 48.1875 
Q 44.578125 48.1875 50.953125 41.515625 
Q 57.328125 34.859375 57.328125 23.390625 
Q 57.328125 12.15625 50.6875 5.359375 
Q 44.046875 -1.421875 33.015625 -1.421875 
Q 20.359375 -1.421875 13.671875 8.265625 
Q 6.984375 17.96875 6.984375 36.375 
Q 6.984375 53.65625 15.1875 63.9375 
Q 23.390625 74.21875 37.203125 74.21875 
Q 40.921875 74.21875 44.703125 73.484375 
Q 48.484375 72.75 52.59375 71.296875 
z
" id="DejaVuSans-54"/>
      </defs>
      <g transform="translate(205.853459 322.182437)scale(0.1 -0.1)">
       <use xlink:href="#DejaVuSans-54"/>
       <use x="63.623047" xlink:href="#DejaVuSans-48"/>
       <use x="127.246094" xlink:href="#DejaVuSans-48"/>
      </g>
     </g>
    </g>
    <g id="xtick_5">
     <g id="line2d_5">
      <g>
       <use style="stroke:#000000;stroke-width:0.8;" x="262.58537" xlink:href="#mdd5d5489ea" y="307.584"/>
      </g>
     </g>
     <g id="text_5">
      <!-- 800 -->
      <defs>
       <path d="M 31.78125 34.625 
Q 24.75 34.625 20.71875 30.859375 
Q 16.703125 27.09375 16.703125 20.515625 
Q 16.703125 13.921875 20.71875 10.15625 
Q 24.75 6.390625 31.78125 6.390625 
Q 38.8125 6.390625 42.859375 10.171875 
Q 46.921875 13.96875 46.921875 20.515625 
Q 46.921875 27.09375 42.890625 30.859375 
Q 38.875 34.625 31.78125 34.625 
z
M 21.921875 38.8125 
Q 15.578125 40.375 12.03125 44.71875 
Q 8.5 49.078125 8.5 55.328125 
Q 8.5 64.0625 14.71875 69.140625 
Q 20.953125 74.21875 31.78125 74.21875 
Q 42.671875 74.21875 48.875 69.140625 
Q 55.078125 64.0625 55.078125 55.328125 
Q 55.078125 49.078125 51.53125 44.71875 
Q 48 40.375 41.703125 38.8125 
Q 48.828125 37.15625 52.796875 32.3125 
Q 56.78125 27.484375 56.78125 20.515625 
Q 56.78125 9.90625 50.3125 4.234375 
Q 43.84375 -1.421875 31.78125 -1.421875 
Q 19.734375 -1.421875 13.25 4.234375 
Q 6.78125 9.90625 6.78125 20.515625 
Q 6.78125 27.484375 10.78125 32.3125 
Q 14.796875 37.15625 21.921875 38.8125 
z
M 18.3125 54.390625 
Q 18.3125 48.734375 21.84375 45.5625 
Q 25.390625 42.390625 31.78125 42.390625 
Q 38.140625 42.390625 41.71875 45.5625 
Q 45.3125 48.734375 45.3125 54.390625 
Q 45.3125 60.0625 41.71875 63.234375 
Q 38.140625 66.40625 31.78125 66.40625 
Q 25.390625 66.40625 21.84375 63.234375 
Q 18.3125 60.0625 18.3125 54.390625 
z
" id="DejaVuSans-56"/>
      </defs>
      <g transform="translate(253.04162 322.182437)scale(0.1 -0.1)">
       <use xlink:href="#DejaVuSans-56"/>
       <use x="63.623047" xlink:href="#DejaVuSans-48"/>
       <use x="127.246094" xlink:href="#DejaVuSans-48"/>
      </g>
     </g>
    </g>
    <g id="xtick_6">
     <g id="line2d_6">
      <g>
       <use style="stroke:#000000;stroke-width:0.8;" x="309.773531" xlink:href="#mdd5d5489ea" y="307.584"/>
      </g>
     </g>
     <g id="text_6">
      <!-- 1000 -->
      <defs>
       <path d="M 12.40625 8.296875 
L 28.515625 8.296875 
L 28.515625 63.921875 
L 10.984375 60.40625 
L 10.984375 69.390625 
L 28.421875 72.90625 
L 38.28125 72.90625 
L 38.28125 8.296875 
L 54.390625 8.296875 
L 54.390625 0 
L 12.40625 0 
z
" id="DejaVuSans-49"/>
      </defs>
      <g transform="translate(297.048531 322.182437)scale(0.1 -0.1)">
       <use xlink:href="#DejaVuSans-49"/>
       <use x="63.623047" xlink:href="#DejaVuSans-48"/>
       <use x="127.246094" xlink:href="#DejaVuSans-48"/>
       <use x="190.869141" xlink:href="#DejaVuSans-48"/>
      </g>
     </g>
    </g>
    <g id="xtick_7">
     <g id="line2d_7">
      <g>
       <use style="stroke:#000000;stroke-width:0.8;" x="356.961691" xlink:href="#mdd5d5489ea" y="307.584"/>
      </g>
     </g>
     <g id="text_7">
      <!-- 1200 -->
      <g transform="translate(344.236691 322.182437)scale(0.1 -0.1)">
       <use xlink:href="#DejaVuSans-49"/>
       <use x="63.623047" xlink:href="#DejaVuSans-50"/>
       <use x="127.246094" xlink:href="#DejaVuSans-48"/>
       <use x="190.869141" xlink:href="#DejaVuSans-48"/>
      </g>
     </g>
    </g>
    <g id="xtick_8">
     <g id="line2d_8">
      <g>
       <use style="stroke:#000000;stroke-width:0.8;" x="404.149852" xlink:href="#mdd5d5489ea" y="307.584"/>
      </g>
     </g>
     <g id="text_8">
      <!-- 1400 -->
      <g transform="translate(391.424852 322.182437)scale(0.1 -0.1)">
       <use xlink:href="#DejaVuSans-49"/>
       <use x="63.623047" xlink:href="#DejaVuSans-52"/>
       <use x="127.246094" xlink:href="#DejaVuSans-48"/>
       <use x="190.869141" xlink:href="#DejaVuSans-48"/>
      </g>
     </g>
    </g>
    <g id="text_9">
     <!-- Games -->
     <defs>
      <path d="M 59.515625 10.40625 
L 59.515625 29.984375 
L 43.40625 29.984375 
L 43.40625 38.09375 
L 69.28125 38.09375 
L 69.28125 6.78125 
Q 63.578125 2.734375 56.6875 0.65625 
Q 49.8125 -1.421875 42 -1.421875 
Q 24.90625 -1.421875 15.25 8.5625 
Q 5.609375 18.5625 5.609375 36.375 
Q 5.609375 54.25 15.25 64.234375 
Q 24.90625 74.21875 42 74.21875 
Q 49.125 74.21875 55.546875 72.453125 
Q 61.96875 70.703125 67.390625 67.28125 
L 67.390625 56.78125 
Q 61.921875 61.421875 55.765625 63.765625 
Q 49.609375 66.109375 42.828125 66.109375 
Q 29.4375 66.109375 22.71875 58.640625 
Q 16.015625 51.171875 16.015625 36.375 
Q 16.015625 21.625 22.71875 14.15625 
Q 29.4375 6.6875 42.828125 6.6875 
Q 48.046875 6.6875 52.140625 7.59375 
Q 56.25 8.5 59.515625 10.40625 
z
" id="DejaVuSans-71"/>
      <path d="M 34.28125 27.484375 
Q 23.390625 27.484375 19.1875 25 
Q 14.984375 22.515625 14.984375 16.5 
Q 14.984375 11.71875 18.140625 8.90625 
Q 21.296875 6.109375 26.703125 6.109375 
Q 34.1875 6.109375 38.703125 11.40625 
Q 43.21875 16.703125 43.21875 25.484375 
L 43.21875 27.484375 
z
M 52.203125 31.203125 
L 52.203125 0 
L 43.21875 0 
L 43.21875 8.296875 
Q 40.140625 3.328125 35.546875 0.953125 
Q 30.953125 -1.421875 24.3125 -1.421875 
Q 15.921875 -1.421875 10.953125 3.296875 
Q 6 8.015625 6 15.921875 
Q 6 25.140625 12.171875 29.828125 
Q 18.359375 34.515625 30.609375 34.515625 
L 43.21875 34.515625 
L 43.21875 35.40625 
Q 43.21875 41.609375 39.140625 45 
Q 35.0625 48.390625 27.6875 48.390625 
Q 23 48.390625 18.546875 47.265625 
Q 14.109375 46.140625 10.015625 43.890625 
L 10.015625 52.203125 
Q 14.9375 54.109375 19.578125 55.046875 
Q 24.21875 56 28.609375 56 
Q 40.484375 56 46.34375 49.84375 
Q 52.203125 43.703125 52.203125 31.203125 
z
" id="DejaVuSans-97"/>
      <path d="M 52 44.1875 
Q 55.375 50.25 60.0625 53.125 
Q 64.75 56 71.09375 56 
Q 79.640625 56 84.28125 50.015625 
Q 88.921875 44.046875 88.921875 33.015625 
L 88.921875 0 
L 79.890625 0 
L 79.890625 32.71875 
Q 79.890625 40.578125 77.09375 44.375 
Q 74.3125 48.1875 68.609375 48.1875 
Q 61.625 48.1875 57.5625 43.546875 
Q 53.515625 38.921875 53.515625 30.90625 
L 53.515625 0 
L 44.484375 0 
L 44.484375 32.71875 
Q 44.484375 40.625 41.703125 44.40625 
Q 38.921875 48.1875 33.109375 48.1875 
Q 26.21875 48.1875 22.15625 43.53125 
Q 18.109375 38.875 18.109375 30.90625 
L 18.109375 0 
L 9.078125 0 
L 9.078125 54.6875 
L 18.109375 54.6875 
L 18.109375 46.1875 
Q 21.1875 51.21875 25.484375 53.609375 
Q 29.78125 56 35.6875 56 
Q 41.65625 56 45.828125 52.96875 
Q 50 49.953125 52 44.1875 
z
" id="DejaVuSans-109"/>
      <path d="M 56.203125 29.59375 
L 56.203125 25.203125 
L 14.890625 25.203125 
Q 15.484375 15.921875 20.484375 11.0625 
Q 25.484375 6.203125 34.421875 6.203125 
Q 39.59375 6.203125 44.453125 7.46875 
Q 49.3125 8.734375 54.109375 11.28125 
L 54.109375 2.78125 
Q 49.265625 0.734375 44.1875 -0.34375 
Q 39.109375 -1.421875 33.890625 -1.421875 
Q 20.796875 -1.421875 13.15625 6.1875 
Q 5.515625 13.8125 5.515625 26.8125 
Q 5.515625 40.234375 12.765625 48.109375 
Q 20.015625 56 32.328125 56 
Q 43.359375 56 49.78125 48.890625 
Q 56.203125 41.796875 56.203125 29.59375 
z
M 47.21875 32.234375 
Q 47.125 39.59375 43.09375 43.984375 
Q 39.0625 48.390625 32.421875 48.390625 
Q 24.90625 48.390625 20.390625 44.140625 
Q 15.875 39.890625 15.1875 32.171875 
z
" id="DejaVuSans-101"/>
      <path d="M 44.28125 53.078125 
L 44.28125 44.578125 
Q 40.484375 46.53125 36.375 47.5 
Q 32.28125 48.484375 27.875 48.484375 
Q 21.1875 48.484375 17.84375 46.4375 
Q 14.5 44.390625 14.5 40.28125 
Q 14.5 37.15625 16.890625 35.375 
Q 19.28125 33.59375 26.515625 31.984375 
L 29.59375 31.296875 
Q 39.15625 29.25 43.1875 25.515625 
Q 47.21875 21.78125 47.21875 15.09375 
Q 47.21875 7.46875 41.1875 3.015625 
Q 35.15625 -1.421875 24.609375 -1.421875 
Q 20.21875 -1.421875 15.453125 -0.5625 
Q 10.6875 0.296875 5.421875 2 
L 5.421875 11.28125 
Q 10.40625 8.6875 15.234375 7.390625 
Q 20.0625 6.109375 24.8125 6.109375 
Q 31.15625 6.109375 34.5625 8.28125 
Q 37.984375 10.453125 37.984375 14.40625 
Q 37.984375 18.0625 35.515625 20.015625 
Q 33.0625 21.96875 24.703125 23.78125 
L 21.578125 24.515625 
Q 13.234375 26.265625 9.515625 29.90625 
Q 5.8125 33.546875 5.8125 39.890625 
Q 5.8125 47.609375 11.28125 51.796875 
Q 16.75 56 26.8125 56 
Q 31.78125 56 36.171875 55.265625 
Q 40.578125 54.546875 44.28125 53.078125 
z
" id="DejaVuSans-115"/>
     </defs>
     <g transform="translate(218.670156 335.860562)scale(0.1 -0.1)">
      <use xlink:href="#DejaVuSans-71"/>
      <use x="77.490234" xlink:href="#DejaVuSans-97"/>
      <use x="138.769531" xlink:href="#DejaVuSans-109"/>
      <use x="236.181641" xlink:href="#DejaVuSans-101"/>
      <use x="297.705078" xlink:href="#DejaVuSans-115"/>
     </g>
    </g>
   </g>
   <g id="matplotlib.axis_2">
    <g id="ytick_1">
     <g id="line2d_9">
      <defs>
       <path d="M 0 0 
L -3.5 0 
" id="m83f5126dcc" style="stroke:#000000;stroke-width:0.8;"/>
      </defs>
      <g>
       <use style="stroke:#000000;stroke-width:0.8;" x="57.6" xlink:href="#m83f5126dcc" y="282.755368"/>
      </g>
     </g>
     <g id="text_10">
      <!-- 0.0 -->
      <defs>
       <path d="M 10.6875 12.40625 
L 21 12.40625 
L 21 0 
L 10.6875 0 
z
" id="DejaVuSans-46"/>
      </defs>
      <g transform="translate(34.696875 286.554587)scale(0.1 -0.1)">
       <use xlink:href="#DejaVuSans-48"/>
       <use x="63.623047" xlink:href="#DejaVuSans-46"/>
       <use x="95.410156" xlink:href="#DejaVuSans-48"/>
      </g>
     </g>
    </g>
    <g id="ytick_2">
     <g id="line2d_10">
      <g>
       <use style="stroke:#000000;stroke-width:0.8;" x="57.6" xlink:href="#m83f5126dcc" y="250.923789"/>
      </g>
     </g>
     <g id="text_11">
      <!-- 2.5 -->
      <defs>
       <path d="M 10.796875 72.90625 
L 49.515625 72.90625 
L 49.515625 64.59375 
L 19.828125 64.59375 
L 19.828125 46.734375 
Q 21.96875 47.46875 24.109375 47.828125 
Q 26.265625 48.1875 28.421875 48.1875 
Q 40.625 48.1875 47.75 41.5 
Q 54.890625 34.8125 54.890625 23.390625 
Q 54.890625 11.625 47.5625 5.09375 
Q 40.234375 -1.421875 26.90625 -1.421875 
Q 22.3125 -1.421875 17.546875 -0.640625 
Q 12.796875 0.140625 7.71875 1.703125 
L 7.71875 11.625 
Q 12.109375 9.234375 16.796875 8.0625 
Q 21.484375 6.890625 26.703125 6.890625 
Q 35.15625 6.890625 40.078125 11.328125 
Q 45.015625 15.765625 45.015625 23.390625 
Q 45.015625 31 40.078125 35.4375 
Q 35.15625 39.890625 26.703125 39.890625 
Q 22.75 39.890625 18.8125 39.015625 
Q 14.890625 38.140625 10.796875 36.28125 
z
" id="DejaVuSans-53"/>
      </defs>
      <g transform="translate(34.696875 254.723008)scale(0.1 -0.1)">
       <use xlink:href="#DejaVuSans-50"/>
       <use x="63.623047" xlink:href="#DejaVuSans-46"/>
       <use x="95.410156" xlink:href="#DejaVuSans-53"/>
      </g>
     </g>
    </g>
    <g id="ytick_3">
     <g id="line2d_11">
      <g>
       <use style="stroke:#000000;stroke-width:0.8;" x="57.6" xlink:href="#m83f5126dcc" y="219.092211"/>
      </g>
     </g>
     <g id="text_12">
      <!-- 5.0 -->
      <g transform="translate(34.696875 222.891429)scale(0.1 -0.1)">
       <use xlink:href="#DejaVuSans-53"/>
       <use x="63.623047" xlink:href="#DejaVuSans-46"/>
       <use x="95.410156" xlink:href="#DejaVuSans-48"/>
      </g>
     </g>
    </g>
    <g id="ytick_4">
     <g id="line2d_12">
      <g>
       <use style="stroke:#000000;stroke-width:0.8;" x="57.6" xlink:href="#m83f5126dcc" y="187.260632"/>
      </g>
     </g>
     <g id="text_13">
      <!-- 7.5 -->
      <defs>
       <path d="M 8.203125 72.90625 
L 55.078125 72.90625 
L 55.078125 68.703125 
L 28.609375 0 
L 18.3125 0 
L 43.21875 64.59375 
L 8.203125 64.59375 
z
" id="DejaVuSans-55"/>
      </defs>
      <g transform="translate(34.696875 191.05985)scale(0.1 -0.1)">
       <use xlink:href="#DejaVuSans-55"/>
       <use x="63.623047" xlink:href="#DejaVuSans-46"/>
       <use x="95.410156" xlink:href="#DejaVuSans-53"/>
      </g>
     </g>
    </g>
    <g id="ytick_5">
     <g id="line2d_13">
      <g>
       <use style="stroke:#000000;stroke-width:0.8;" x="57.6" xlink:href="#m83f5126dcc" y="155.429053"/>
      </g>
     </g>
     <g id="text_14">
      <!-- 10.0 -->
      <g transform="translate(28.334375 159.228271)scale(0.1 -0.1)">
       <use xlink:href="#DejaVuSans-49"/>
       <use x="63.623047" xlink:href="#DejaVuSans-48"/>
       <use x="127.246094" xlink:href="#DejaVuSans-46"/>
       <use x="159.033203" xlink:href="#DejaVuSans-48"/>
      </g>
     </g>
    </g>
    <g id="ytick_6">
     <g id="line2d_14">
      <g>
       <use style="stroke:#000000;stroke-width:0.8;" x="57.6" xlink:href="#m83f5126dcc" y="123.597474"/>
      </g>
     </g>
     <g id="text_15">
      <!-- 12.5 -->
      <g transform="translate(28.334375 127.396692)scale(0.1 -0.1)">
       <use xlink:href="#DejaVuSans-49"/>
       <use x="63.623047" xlink:href="#DejaVuSans-50"/>
       <use x="127.246094" xlink:href="#DejaVuSans-46"/>
       <use x="159.033203" xlink:href="#DejaVuSans-53"/>
      </g>
     </g>
    </g>
    <g id="ytick_7">
     <g id="line2d_15">
      <g>
       <use style="stroke:#000000;stroke-width:0.8;" x="57.6" xlink:href="#m83f5126dcc" y="91.765895"/>
      </g>
     </g>
     <g id="text_16">
      <!-- 15.0 -->
      <g transform="translate(28.334375 95.565113)scale(0.1 -0.1)">
       <use xlink:href="#DejaVuSans-49"/>
       <use x="63.623047" xlink:href="#DejaVuSans-53"/>
       <use x="127.246094" xlink:href="#DejaVuSans-46"/>
       <use x="159.033203" xlink:href="#DejaVuSans-48"/>
      </g>
     </g>
    </g>
    <g id="ytick_8">
     <g id="line2d_16">
      <g>
       <use style="stroke:#000000;stroke-width:0.8;" x="57.6" xlink:href="#m83f5126dcc" y="59.934316"/>
      </g>
     </g>
     <g id="text_17">
      <!-- 17.5 -->
      <g transform="translate(28.334375 63.733535)scale(0.1 -0.1)">
       <use xlink:href="#DejaVuSans-49"/>
       <use x="63.623047" xlink:href="#DejaVuSans-55"/>
       <use x="127.246094" xlink:href="#DejaVuSans-46"/>
       <use x="159.033203" xlink:href="#DejaVuSans-53"/>
      </g>
     </g>
    </g>
    <g id="text_18">
     <!-- Episodic reward (true) -->
     <defs>
      <path d="M 9.8125 72.90625 
L 55.90625 72.90625 
L 55.90625 64.59375 
L 19.671875 64.59375 
L 19.671875 43.015625 
L 54.390625 43.015625 
L 54.390625 34.71875 
L 19.671875 34.71875 
L 19.671875 8.296875 
L 56.78125 8.296875 
L 56.78125 0 
L 9.8125 0 
z
" id="DejaVuSans-69"/>
      <path d="M 18.109375 8.203125 
L 18.109375 -20.796875 
L 9.078125 -20.796875 
L 9.078125 54.6875 
L 18.109375 54.6875 
L 18.109375 46.390625 
Q 20.953125 51.265625 25.265625 53.625 
Q 29.59375 56 35.59375 56 
Q 45.5625 56 51.78125 48.09375 
Q 58.015625 40.1875 58.015625 27.296875 
Q 58.015625 14.40625 51.78125 6.484375 
Q 45.5625 -1.421875 35.59375 -1.421875 
Q 29.59375 -1.421875 25.265625 0.953125 
Q 20.953125 3.328125 18.109375 8.203125 
z
M 48.6875 27.296875 
Q 48.6875 37.203125 44.609375 42.84375 
Q 40.53125 48.484375 33.40625 48.484375 
Q 26.265625 48.484375 22.1875 42.84375 
Q 18.109375 37.203125 18.109375 27.296875 
Q 18.109375 17.390625 22.1875 11.75 
Q 26.265625 6.109375 33.40625 6.109375 
Q 40.53125 6.109375 44.609375 11.75 
Q 48.6875 17.390625 48.6875 27.296875 
z
" id="DejaVuSans-112"/>
      <path d="M 9.421875 54.6875 
L 18.40625 54.6875 
L 18.40625 0 
L 9.421875 0 
z
M 9.421875 75.984375 
L 18.40625 75.984375 
L 18.40625 64.59375 
L 9.421875 64.59375 
z
" id="DejaVuSans-105"/>
      <path d="M 30.609375 48.390625 
Q 23.390625 48.390625 19.1875 42.75 
Q 14.984375 37.109375 14.984375 27.296875 
Q 14.984375 17.484375 19.15625 11.84375 
Q 23.34375 6.203125 30.609375 6.203125 
Q 37.796875 6.203125 41.984375 11.859375 
Q 46.1875 17.53125 46.1875 27.296875 
Q 46.1875 37.015625 41.984375 42.703125 
Q 37.796875 48.390625 30.609375 48.390625 
z
M 30.609375 56 
Q 42.328125 56 49.015625 48.375 
Q 55.71875 40.765625 55.71875 27.296875 
Q 55.71875 13.875 49.015625 6.21875 
Q 42.328125 -1.421875 30.609375 -1.421875 
Q 18.84375 -1.421875 12.171875 6.21875 
Q 5.515625 13.875 5.515625 27.296875 
Q 5.515625 40.765625 12.171875 48.375 
Q 18.84375 56 30.609375 56 
z
" id="DejaVuSans-111"/>
      <path d="M 45.40625 46.390625 
L 45.40625 75.984375 
L 54.390625 75.984375 
L 54.390625 0 
L 45.40625 0 
L 45.40625 8.203125 
Q 42.578125 3.328125 38.25 0.953125 
Q 33.9375 -1.421875 27.875 -1.421875 
Q 17.96875 -1.421875 11.734375 6.484375 
Q 5.515625 14.40625 5.515625 27.296875 
Q 5.515625 40.1875 11.734375 48.09375 
Q 17.96875 56 27.875 56 
Q 33.9375 56 38.25 53.625 
Q 42.578125 51.265625 45.40625 46.390625 
z
M 14.796875 27.296875 
Q 14.796875 17.390625 18.875 11.75 
Q 22.953125 6.109375 30.078125 6.109375 
Q 37.203125 6.109375 41.296875 11.75 
Q 45.40625 17.390625 45.40625 27.296875 
Q 45.40625 37.203125 41.296875 42.84375 
Q 37.203125 48.484375 30.078125 48.484375 
Q 22.953125 48.484375 18.875 42.84375 
Q 14.796875 37.203125 14.796875 27.296875 
z
" id="DejaVuSans-100"/>
      <path d="M 48.78125 52.59375 
L 48.78125 44.1875 
Q 44.96875 46.296875 41.140625 47.34375 
Q 37.3125 48.390625 33.40625 48.390625 
Q 24.65625 48.390625 19.8125 42.84375 
Q 14.984375 37.3125 14.984375 27.296875 
Q 14.984375 17.28125 19.8125 11.734375 
Q 24.65625 6.203125 33.40625 6.203125 
Q 37.3125 6.203125 41.140625 7.25 
Q 44.96875 8.296875 48.78125 10.40625 
L 48.78125 2.09375 
Q 45.015625 0.34375 40.984375 -0.53125 
Q 36.96875 -1.421875 32.421875 -1.421875 
Q 20.0625 -1.421875 12.78125 6.34375 
Q 5.515625 14.109375 5.515625 27.296875 
Q 5.515625 40.671875 12.859375 48.328125 
Q 20.21875 56 33.015625 56 
Q 37.15625 56 41.109375 55.140625 
Q 45.0625 54.296875 48.78125 52.59375 
z
" id="DejaVuSans-99"/>
      <path id="DejaVuSans-32"/>
      <path d="M 41.109375 46.296875 
Q 39.59375 47.171875 37.8125 47.578125 
Q 36.03125 48 33.890625 48 
Q 26.265625 48 22.1875 43.046875 
Q 18.109375 38.09375 18.109375 28.8125 
L 18.109375 0 
L 9.078125 0 
L 9.078125 54.6875 
L 18.109375 54.6875 
L 18.109375 46.1875 
Q 20.953125 51.171875 25.484375 53.578125 
Q 30.03125 56 36.53125 56 
Q 37.453125 56 38.578125 55.875 
Q 39.703125 55.765625 41.0625 55.515625 
z
" id="DejaVuSans-114"/>
      <path d="M 4.203125 54.6875 
L 13.1875 54.6875 
L 24.421875 12.015625 
L 35.59375 54.6875 
L 46.1875 54.6875 
L 57.421875 12.015625 
L 68.609375 54.6875 
L 77.59375 54.6875 
L 63.28125 0 
L 52.6875 0 
L 40.921875 44.828125 
L 29.109375 0 
L 18.5 0 
z
" id="DejaVuSans-119"/>
      <path d="M 31 75.875 
Q 24.46875 64.65625 21.28125 53.65625 
Q 18.109375 42.671875 18.109375 31.390625 
Q 18.109375 20.125 21.3125 9.0625 
Q 24.515625 -2 31 -13.1875 
L 23.1875 -13.1875 
Q 15.875 -1.703125 12.234375 9.375 
Q 8.59375 20.453125 8.59375 31.390625 
Q 8.59375 42.28125 12.203125 53.3125 
Q 15.828125 64.359375 23.1875 75.875 
z
" id="DejaVuSans-40"/>
      <path d="M 18.3125 70.21875 
L 18.3125 54.6875 
L 36.8125 54.6875 
L 36.8125 47.703125 
L 18.3125 47.703125 
L 18.3125 18.015625 
Q 18.3125 11.328125 20.140625 9.421875 
Q 21.96875 7.515625 27.59375 7.515625 
L 36.8125 7.515625 
L 36.8125 0 
L 27.59375 0 
Q 17.1875 0 13.234375 3.875 
Q 9.28125 7.765625 9.28125 18.015625 
L 9.28125 47.703125 
L 2.6875 47.703125 
L 2.6875 54.6875 
L 9.28125 54.6875 
L 9.28125 70.21875 
z
" id="DejaVuSans-116"/>
      <path d="M 8.5 21.578125 
L 8.5 54.6875 
L 17.484375 54.6875 
L 17.484375 21.921875 
Q 17.484375 14.15625 20.5 10.265625 
Q 23.53125 6.390625 29.59375 6.390625 
Q 36.859375 6.390625 41.078125 11.03125 
Q 45.3125 15.671875 45.3125 23.6875 
L 45.3125 54.6875 
L 54.296875 54.6875 
L 54.296875 0 
L 45.3125 0 
L 45.3125 8.40625 
Q 42.046875 3.421875 37.71875 1 
Q 33.40625 -1.421875 27.6875 -1.421875 
Q 18.265625 -1.421875 13.375 4.4375 
Q 8.5 10.296875 8.5 21.578125 
z
M 31.109375 56 
z
" id="DejaVuSans-117"/>
      <path d="M 8.015625 75.875 
L 15.828125 75.875 
Q 23.140625 64.359375 26.78125 53.3125 
Q 30.421875 42.28125 30.421875 31.390625 
Q 30.421875 20.453125 26.78125 9.375 
Q 23.140625 -1.703125 15.828125 -13.1875 
L 8.015625 -13.1875 
Q 14.5 -2 17.703125 9.0625 
Q 20.90625 20.125 20.90625 31.390625 
Q 20.90625 42.671875 17.703125 53.65625 
Q 14.5 64.65625 8.015625 75.875 
z
" id="DejaVuSans-41"/>
     </defs>
     <g transform="translate(22.254687 230.080344)rotate(-90)scale(0.1 -0.1)">
      <use xlink:href="#DejaVuSans-69"/>
      <use x="63.183594" xlink:href="#DejaVuSans-112"/>
      <use x="126.660156" xlink:href="#DejaVuSans-105"/>
      <use x="154.443359" xlink:href="#DejaVuSans-115"/>
      <use x="206.542969" xlink:href="#DejaVuSans-111"/>
      <use x="267.724609" xlink:href="#DejaVuSans-100"/>
      <use x="331.201172" xlink:href="#DejaVuSans-105"/>
      <use x="358.984375" xlink:href="#DejaVuSans-99"/>
      <use x="413.964844" xlink:href="#DejaVuSans-32"/>
      <use x="445.751953" xlink:href="#DejaVuSans-114"/>
      <use x="486.833984" xlink:href="#DejaVuSans-101"/>
      <use x="548.357422" xlink:href="#DejaVuSans-119"/>
      <use x="630.144531" xlink:href="#DejaVuSans-97"/>
      <use x="691.423828" xlink:href="#DejaVuSans-114"/>
      <use x="732.521484" xlink:href="#DejaVuSans-100"/>
      <use x="795.998047" xlink:href="#DejaVuSans-32"/>
      <use x="827.785156" xlink:href="#DejaVuSans-40"/>
      <use x="866.798828" xlink:href="#DejaVuSans-116"/>
      <use x="906.007812" xlink:href="#DejaVuSans-114"/>
      <use x="947.121094" xlink:href="#DejaVuSans-117"/>
      <use x="1010.5" xlink:href="#DejaVuSans-101"/>
      <use x="1072.023438" xlink:href="#DejaVuSans-41"/>
     </g>
    </g>
   </g>
   <g id="line2d_17">
    <path clip-path="url(#p02fa1a2e94)" d="M 73.832727 282.755368 
L 74.068668 270.022737 
L 74.304609 270.022737 
L 74.54055 257.290105 
L 74.77649 270.022737 
L 75.012431 270.022737 
L 75.248372 282.755368 
L 75.484313 270.022737 
L 75.720254 231.824842 
L 75.956195 257.290105 
L 76.192135 244.557474 
L 76.428076 244.557474 
L 76.664017 282.755368 
L 76.899958 282.755368 
L 77.135899 270.022737 
L 77.371839 295.488 
L 77.843721 295.488 
L 78.079662 257.290105 
L 78.315603 282.755368 
L 78.787484 282.755368 
L 79.023425 295.488 
L 80.43907 295.488 
L 80.910951 270.022737 
L 81.146892 282.755368 
L 81.618774 282.755368 
L 81.854715 257.290105 
L 82.090655 282.755368 
L 82.326596 257.290105 
L 82.562537 282.755368 
L 83.270359 282.755368 
L 83.5063 295.488 
L 83.978182 295.488 
L 84.214123 282.755368 
L 84.921945 282.755368 
L 85.157886 295.488 
L 85.865708 257.290105 
L 86.101649 282.755368 
L 86.33759 282.755368 
L 86.573531 270.022737 
L 86.809471 270.022737 
L 87.045412 282.755368 
L 87.281353 257.290105 
L 87.517294 244.557474 
L 87.753235 270.022737 
L 87.989175 257.290105 
L 88.225116 270.022737 
L 88.461057 270.022737 
L 88.696998 295.488 
L 88.932939 270.022737 
L 89.168879 270.022737 
L 89.40482 257.290105 
L 89.640761 282.755368 
L 89.876702 282.755368 
L 90.112643 257.290105 
L 90.348584 282.755368 
L 90.584524 231.824842 
L 90.820465 282.755368 
L 91.056406 257.290105 
L 91.292347 282.755368 
L 92.000169 282.755368 
L 92.23611 270.022737 
L 92.472051 219.092211 
L 92.707992 270.022737 
L 92.943932 270.022737 
L 93.179873 282.755368 
L 93.415814 257.290105 
L 93.651755 295.488 
L 93.887696 270.022737 
L 94.123636 257.290105 
L 94.359577 282.755368 
L 94.595518 231.824842 
L 94.831459 231.824842 
L 95.0674 270.022737 
L 95.30334 244.557474 
L 95.539281 282.755368 
L 95.775222 257.290105 
L 96.247104 282.755368 
L 96.483044 270.022737 
L 96.718985 270.022737 
L 97.190867 244.557474 
L 97.426808 270.022737 
L 97.662748 244.557474 
L 97.898689 244.557474 
L 98.13463 270.022737 
L 98.370571 282.755368 
L 98.606512 231.824842 
L 98.842452 270.022737 
L 99.078393 270.022737 
L 99.314334 244.557474 
L 99.550275 244.557474 
L 99.786216 282.755368 
L 100.258097 193.626947 
L 100.494038 270.022737 
L 100.96592 244.557474 
L 101.20186 244.557474 
L 101.673742 270.022737 
L 101.909683 219.092211 
L 102.145624 270.022737 
L 102.381564 206.359579 
L 102.853446 257.290105 
L 103.089387 206.359579 
L 103.325328 244.557474 
L 103.561268 244.557474 
L 103.797209 219.092211 
L 104.03315 244.557474 
L 104.269091 257.290105 
L 104.505032 231.824842 
L 104.740973 257.290105 
L 104.976913 231.824842 
L 105.212854 244.557474 
L 105.448795 231.824842 
L 106.156617 270.022737 
L 106.392558 206.359579 
L 106.628499 270.022737 
L 106.86444 231.824842 
L 107.100381 219.092211 
L 107.336321 257.290105 
L 107.572262 257.290105 
L 107.808203 244.557474 
L 108.044144 219.092211 
L 108.280085 257.290105 
L 108.516025 219.092211 
L 108.751966 244.557474 
L 108.987907 219.092211 
L 109.223848 206.359579 
L 109.459789 231.824842 
L 109.695729 231.824842 
L 109.93167 219.092211 
L 110.167611 244.557474 
L 110.403552 244.557474 
L 110.639493 219.092211 
L 110.875433 244.557474 
L 111.111374 257.290105 
L 111.347315 231.824842 
L 112.291078 231.824842 
L 112.527019 257.290105 
L 112.76296 270.022737 
L 112.998901 231.824842 
L 113.234841 244.557474 
L 113.470782 206.359579 
L 113.706723 206.359579 
L 113.942664 270.022737 
L 114.178605 282.755368 
L 114.414545 270.022737 
L 114.650486 193.626947 
L 114.886427 270.022737 
L 115.122368 193.626947 
L 115.358309 231.824842 
L 115.594249 244.557474 
L 115.83019 180.894316 
L 116.066131 244.557474 
L 116.302072 270.022737 
L 116.538013 219.092211 
L 116.773953 231.824842 
L 117.009894 257.290105 
L 117.245835 168.161684 
L 117.481776 206.359579 
L 117.717717 270.022737 
L 117.953658 257.290105 
L 118.189598 206.359579 
L 118.425539 244.557474 
L 118.66148 219.092211 
L 118.897421 244.557474 
L 119.133362 193.626947 
L 119.369302 257.290105 
L 119.605243 193.626947 
L 119.841184 257.290105 
L 120.077125 219.092211 
L 120.313066 244.557474 
L 120.549006 244.557474 
L 120.784947 257.290105 
L 121.020888 231.824842 
L 121.256829 244.557474 
L 121.49277 270.022737 
L 121.72871 257.290105 
L 121.964651 180.894316 
L 122.200592 206.359579 
L 122.436533 193.626947 
L 122.672474 193.626947 
L 123.144355 219.092211 
L 123.380296 244.557474 
L 123.616237 180.894316 
L 123.852178 231.824842 
L 124.088118 244.557474 
L 124.324059 231.824842 
L 124.56 244.557474 
L 124.795941 244.557474 
L 125.031882 180.894316 
L 125.267822 206.359579 
L 125.503763 180.894316 
L 125.739704 257.290105 
L 126.211586 257.290105 
L 126.447526 193.626947 
L 126.683467 257.290105 
L 126.919408 206.359579 
L 127.39129 231.824842 
L 127.62723 193.626947 
L 127.863171 231.824842 
L 128.099112 168.161684 
L 128.335053 155.429053 
L 128.570994 206.359579 
L 128.806934 142.696421 
L 129.042875 231.824842 
L 129.278816 206.359579 
L 129.514757 244.557474 
L 129.750698 219.092211 
L 129.986638 168.161684 
L 130.222579 206.359579 
L 130.45852 180.894316 
L 130.694461 206.359579 
L 130.930402 257.290105 
L 131.166342 270.022737 
L 131.402283 193.626947 
L 131.638224 219.092211 
L 131.874165 168.161684 
L 132.110106 206.359579 
L 132.346047 142.696421 
L 132.581987 193.626947 
L 132.817928 193.626947 
L 133.053869 257.290105 
L 133.525751 168.161684 
L 133.761691 155.429053 
L 133.997632 180.894316 
L 134.233573 244.557474 
L 134.469514 244.557474 
L 134.705455 180.894316 
L 134.941395 231.824842 
L 135.177336 244.557474 
L 135.413277 231.824842 
L 135.649218 206.359579 
L 135.885159 168.161684 
L 136.35704 257.290105 
L 136.592981 180.894316 
L 136.828922 193.626947 
L 137.064863 270.022737 
L 137.300803 219.092211 
L 137.536744 270.022737 
L 137.772685 206.359579 
L 138.008626 231.824842 
L 138.244567 142.696421 
L 138.480507 244.557474 
L 138.716448 257.290105 
L 138.952389 155.429053 
L 139.18833 180.894316 
L 139.424271 155.429053 
L 139.660211 180.894316 
L 139.896152 168.161684 
L 140.132093 244.557474 
L 140.368034 142.696421 
L 140.839915 231.824842 
L 141.075856 231.824842 
L 141.311797 257.290105 
L 141.547738 129.963789 
L 141.783679 219.092211 
L 142.019619 206.359579 
L 142.25556 180.894316 
L 142.491501 193.626947 
L 142.727442 129.963789 
L 142.963383 193.626947 
L 143.199323 142.696421 
L 143.435264 206.359579 
L 143.671205 206.359579 
L 143.907146 180.894316 
L 144.143087 257.290105 
L 144.379027 244.557474 
L 144.850909 155.429053 
L 145.08685 193.626947 
L 145.322791 206.359579 
L 145.558732 257.290105 
L 145.794672 193.626947 
L 146.030613 231.824842 
L 146.266554 168.161684 
L 146.502495 257.290105 
L 146.738436 193.626947 
L 146.974376 206.359579 
L 147.210317 193.626947 
L 147.446258 168.161684 
L 147.91814 257.290105 
L 148.15408 180.894316 
L 148.390021 219.092211 
L 148.625962 206.359579 
L 148.861903 257.290105 
L 149.097844 193.626947 
L 149.333784 180.894316 
L 149.569725 193.626947 
L 149.805666 180.894316 
L 150.041607 244.557474 
L 150.277548 168.161684 
L 150.513488 231.824842 
L 150.749429 244.557474 
L 150.98537 206.359579 
L 151.221311 244.557474 
L 151.457252 244.557474 
L 151.693192 219.092211 
L 151.929133 168.161684 
L 152.636956 244.557474 
L 152.872896 244.557474 
L 153.108837 193.626947 
L 153.344778 168.161684 
L 153.81666 270.022737 
L 154.0526 219.092211 
L 154.288541 193.626947 
L 154.524482 231.824842 
L 154.760423 244.557474 
L 154.996364 206.359579 
L 155.232304 193.626947 
L 155.468245 206.359579 
L 155.704186 180.894316 
L 155.940127 180.894316 
L 156.176068 193.626947 
L 156.412008 219.092211 
L 156.647949 206.359579 
L 156.88389 231.824842 
L 157.119831 206.359579 
L 157.355772 231.824842 
L 157.591712 219.092211 
L 157.827653 129.963789 
L 158.063594 219.092211 
L 158.299535 219.092211 
L 158.535476 168.161684 
L 158.771416 219.092211 
L 159.007357 193.626947 
L 159.243298 244.557474 
L 159.479239 231.824842 
L 159.71518 180.894316 
L 159.951121 193.626947 
L 160.187061 231.824842 
L 160.423002 206.359579 
L 160.658943 206.359579 
L 160.894884 257.290105 
L 161.130825 193.626947 
L 161.602706 244.557474 
L 161.838647 180.894316 
L 162.074588 270.022737 
L 162.310529 206.359579 
L 162.546469 231.824842 
L 162.78241 206.359579 
L 163.018351 193.626947 
L 163.490233 219.092211 
L 163.726173 219.092211 
L 163.962114 206.359579 
L 164.198055 142.696421 
L 164.433996 193.626947 
L 164.905877 168.161684 
L 165.141818 206.359579 
L 165.377759 206.359579 
L 165.6137 244.557474 
L 165.849641 231.824842 
L 166.085581 206.359579 
L 166.321522 219.092211 
L 166.557463 257.290105 
L 167.029345 168.161684 
L 167.265285 257.290105 
L 167.501226 206.359579 
L 167.737167 244.557474 
L 167.973108 193.626947 
L 168.209049 193.626947 
L 168.444989 219.092211 
L 168.68093 180.894316 
L 168.916871 231.824842 
L 169.388753 168.161684 
L 169.624693 257.290105 
L 169.860634 270.022737 
L 170.096575 206.359579 
L 170.332516 219.092211 
L 170.568457 244.557474 
L 170.804397 219.092211 
L 171.040338 206.359579 
L 171.276279 231.824842 
L 171.51222 206.359579 
L 171.748161 168.161684 
L 171.984101 193.626947 
L 172.220042 231.824842 
L 172.455983 244.557474 
L 172.691924 193.626947 
L 172.927865 257.290105 
L 173.399746 168.161684 
L 173.635687 206.359579 
L 173.871628 180.894316 
L 174.107569 168.161684 
L 174.34351 244.557474 
L 174.57945 180.894316 
L 174.815391 180.894316 
L 175.051332 231.824842 
L 175.287273 168.161684 
L 175.523214 257.290105 
L 175.759154 142.696421 
L 175.995095 206.359579 
L 176.231036 180.894316 
L 176.466977 142.696421 
L 176.702918 257.290105 
L 176.938858 244.557474 
L 177.174799 206.359579 
L 177.41074 257.290105 
L 177.646681 193.626947 
L 177.882622 168.161684 
L 178.354503 282.755368 
L 178.826385 193.626947 
L 179.062326 180.894316 
L 179.298266 193.626947 
L 179.534207 219.092211 
L 179.770148 219.092211 
L 180.006089 231.824842 
L 180.24203 219.092211 
L 180.47797 244.557474 
L 180.713911 231.824842 
L 180.949852 168.161684 
L 181.421734 193.626947 
L 181.657674 219.092211 
L 181.893615 168.161684 
L 182.129556 244.557474 
L 182.365497 219.092211 
L 182.601438 219.092211 
L 182.837378 206.359579 
L 183.30926 231.824842 
L 183.545201 219.092211 
L 183.781142 219.092211 
L 184.017082 193.626947 
L 184.253023 231.824842 
L 184.488964 193.626947 
L 184.724905 180.894316 
L 184.960846 180.894316 
L 185.196786 168.161684 
L 185.432727 231.824842 
L 185.668668 231.824842 
L 185.904609 155.429053 
L 186.14055 168.161684 
L 186.37649 193.626947 
L 186.612431 206.359579 
L 186.848372 206.359579 
L 187.084313 168.161684 
L 187.320254 206.359579 
L 187.556195 168.161684 
L 187.792135 206.359579 
L 188.028076 193.626947 
L 188.264017 257.290105 
L 188.499958 206.359579 
L 188.971839 206.359579 
L 189.20778 219.092211 
L 189.443721 270.022737 
L 189.679662 219.092211 
L 189.915603 270.022737 
L 190.151543 180.894316 
L 190.387484 244.557474 
L 190.623425 219.092211 
L 190.859366 231.824842 
L 191.095307 193.626947 
L 191.331247 219.092211 
L 191.567188 193.626947 
L 192.03907 168.161684 
L 192.275011 180.894316 
L 192.746892 231.824842 
L 192.982833 244.557474 
L 193.218774 155.429053 
L 193.454715 180.894316 
L 193.690655 180.894316 
L 193.926596 206.359579 
L 194.162537 180.894316 
L 194.398478 180.894316 
L 194.634419 206.359579 
L 194.870359 206.359579 
L 195.1063 168.161684 
L 195.342241 219.092211 
L 195.578182 193.626947 
L 195.814123 244.557474 
L 196.050063 231.824842 
L 196.286004 180.894316 
L 196.521945 168.161684 
L 196.757886 193.626947 
L 196.993827 244.557474 
L 197.229767 219.092211 
L 197.465708 180.894316 
L 197.701649 244.557474 
L 197.93759 155.429053 
L 198.173531 168.161684 
L 198.409471 206.359579 
L 198.881353 206.359579 
L 199.117294 180.894316 
L 199.589175 206.359579 
L 199.825116 155.429053 
L 200.061057 155.429053 
L 200.296998 142.696421 
L 200.532939 155.429053 
L 200.768879 206.359579 
L 201.00482 206.359579 
L 201.240761 168.161684 
L 201.476702 244.557474 
L 201.712643 244.557474 
L 202.184524 142.696421 
L 202.420465 155.429053 
L 202.656406 244.557474 
L 202.892347 206.359579 
L 203.128288 142.696421 
L 203.364228 180.894316 
L 203.600169 180.894316 
L 203.83611 206.359579 
L 204.072051 219.092211 
L 204.307992 206.359579 
L 204.543932 244.557474 
L 204.779873 180.894316 
L 205.015814 219.092211 
L 205.251755 219.092211 
L 205.487696 231.824842 
L 205.723636 231.824842 
L 205.959577 219.092211 
L 206.195518 193.626947 
L 206.431459 206.359579 
L 206.6674 180.894316 
L 206.90334 231.824842 
L 207.139281 168.161684 
L 207.375222 231.824842 
L 207.611163 244.557474 
L 207.847104 270.022737 
L 208.318985 168.161684 
L 208.554926 117.231158 
L 208.790867 231.824842 
L 209.026808 231.824842 
L 209.262748 193.626947 
L 209.498689 257.290105 
L 209.73463 193.626947 
L 209.970571 206.359579 
L 210.206512 129.963789 
L 210.442452 244.557474 
L 210.678393 206.359579 
L 210.914334 129.963789 
L 211.150275 155.429053 
L 211.386216 244.557474 
L 211.858097 244.557474 
L 212.094038 155.429053 
L 212.329979 117.231158 
L 212.56592 244.557474 
L 212.80186 142.696421 
L 213.037801 180.894316 
L 213.273742 193.626947 
L 213.509683 180.894316 
L 213.745624 219.092211 
L 213.981564 142.696421 
L 214.217505 206.359579 
L 214.453446 155.429053 
L 214.689387 193.626947 
L 214.925328 193.626947 
L 215.161268 142.696421 
L 215.397209 257.290105 
L 215.63315 180.894316 
L 215.869091 155.429053 
L 216.105032 219.092211 
L 216.340973 180.894316 
L 216.576913 219.092211 
L 216.812854 155.429053 
L 217.048795 180.894316 
L 217.284736 142.696421 
L 217.520677 155.429053 
L 217.756617 193.626947 
L 217.992558 180.894316 
L 218.228499 206.359579 
L 218.46444 244.557474 
L 218.936321 129.963789 
L 219.172262 231.824842 
L 219.408203 193.626947 
L 219.644144 180.894316 
L 219.880085 193.626947 
L 220.116025 282.755368 
L 220.351966 142.696421 
L 220.587907 168.161684 
L 220.823848 180.894316 
L 221.059789 155.429053 
L 221.295729 155.429053 
L 221.53167 193.626947 
L 221.767611 91.765895 
L 222.003552 193.626947 
L 222.475433 193.626947 
L 222.711374 231.824842 
L 222.947315 180.894316 
L 223.183256 168.161684 
L 223.419197 231.824842 
L 223.655137 180.894316 
L 223.891078 193.626947 
L 224.127019 180.894316 
L 224.36296 129.963789 
L 224.598901 180.894316 
L 224.834841 168.161684 
L 225.070782 219.092211 
L 225.306723 155.429053 
L 225.778605 270.022737 
L 226.014545 244.557474 
L 226.250486 180.894316 
L 226.486427 168.161684 
L 226.722368 142.696421 
L 226.958309 168.161684 
L 227.194249 231.824842 
L 227.43019 206.359579 
L 227.666131 219.092211 
L 227.902072 244.557474 
L 228.138013 180.894316 
L 228.373953 270.022737 
L 228.609894 282.755368 
L 228.845835 206.359579 
L 229.081776 206.359579 
L 229.317717 244.557474 
L 229.789598 155.429053 
L 230.26148 219.092211 
L 230.497421 193.626947 
L 230.733362 193.626947 
L 230.969302 206.359579 
L 231.205243 180.894316 
L 231.441184 206.359579 
L 231.677125 206.359579 
L 231.913066 219.092211 
L 232.149006 142.696421 
L 232.384947 231.824842 
L 232.620888 244.557474 
L 232.856829 231.824842 
L 233.09277 180.894316 
L 233.32871 104.498526 
L 233.564651 206.359579 
L 233.800592 155.429053 
L 234.036533 193.626947 
L 234.272474 193.626947 
L 234.508414 168.161684 
L 234.980296 219.092211 
L 235.216237 180.894316 
L 235.452178 244.557474 
L 235.688118 180.894316 
L 235.924059 168.161684 
L 236.16 193.626947 
L 236.395941 155.429053 
L 236.631882 180.894316 
L 236.867822 155.429053 
L 237.339704 180.894316 
L 237.575645 231.824842 
L 237.811586 231.824842 
L 238.283467 206.359579 
L 238.519408 168.161684 
L 238.99129 257.290105 
L 239.22723 180.894316 
L 239.463171 155.429053 
L 239.699112 244.557474 
L 240.170994 180.894316 
L 240.642875 244.557474 
L 240.878816 155.429053 
L 241.114757 244.557474 
L 241.350698 206.359579 
L 241.586638 244.557474 
L 242.05852 244.557474 
L 242.294461 231.824842 
L 242.530402 206.359579 
L 242.766342 270.022737 
L 243.002283 257.290105 
L 243.238224 193.626947 
L 243.474165 231.824842 
L 243.946047 117.231158 
L 244.181987 193.626947 
L 244.417928 193.626947 
L 244.653869 206.359579 
L 244.88981 193.626947 
L 245.125751 257.290105 
L 245.361691 206.359579 
L 245.597632 206.359579 
L 245.833573 180.894316 
L 246.069514 206.359579 
L 246.305455 219.092211 
L 246.541395 206.359579 
L 246.777336 231.824842 
L 247.485159 231.824842 
L 247.721099 219.092211 
L 248.192981 244.557474 
L 248.428922 129.963789 
L 248.664863 219.092211 
L 248.900803 219.092211 
L 249.136744 168.161684 
L 249.372685 180.894316 
L 249.608626 219.092211 
L 249.844567 219.092211 
L 250.080507 244.557474 
L 250.316448 168.161684 
L 250.552389 244.557474 
L 250.78833 117.231158 
L 251.024271 206.359579 
L 251.260211 155.429053 
L 251.496152 168.161684 
L 251.732093 155.429053 
L 251.968034 168.161684 
L 252.203975 117.231158 
L 252.439915 231.824842 
L 252.675856 231.824842 
L 252.911797 155.429053 
L 253.147738 117.231158 
L 253.383679 142.696421 
L 253.619619 142.696421 
L 253.85556 206.359579 
L 254.091501 219.092211 
L 254.327442 219.092211 
L 254.563383 206.359579 
L 254.799323 244.557474 
L 255.035264 155.429053 
L 255.507146 219.092211 
L 255.979027 219.092211 
L 256.214968 168.161684 
L 256.450909 193.626947 
L 256.922791 193.626947 
L 257.158732 155.429053 
L 257.394672 219.092211 
L 257.630613 79.033263 
L 258.102495 219.092211 
L 258.338436 155.429053 
L 258.574376 219.092211 
L 258.810317 193.626947 
L 259.046258 155.429053 
L 259.282199 180.894316 
L 259.51814 219.092211 
L 259.75408 91.765895 
L 259.990021 180.894316 
L 260.225962 180.894316 
L 260.697844 257.290105 
L 260.933784 193.626947 
L 261.169725 244.557474 
L 261.405666 104.498526 
L 261.877548 231.824842 
L 262.113488 206.359579 
L 262.349429 270.022737 
L 262.58537 193.626947 
L 262.821311 168.161684 
L 263.057252 168.161684 
L 263.293192 244.557474 
L 263.529133 168.161684 
L 263.765074 180.894316 
L 264.001015 168.161684 
L 264.236956 206.359579 
L 264.472896 142.696421 
L 264.708837 219.092211 
L 264.944778 257.290105 
L 265.180719 231.824842 
L 265.41666 155.429053 
L 265.6526 219.092211 
L 265.888541 206.359579 
L 266.124482 206.359579 
L 266.360423 219.092211 
L 266.596364 193.626947 
L 267.304186 231.824842 
L 267.540127 142.696421 
L 267.776068 193.626947 
L 268.012008 206.359579 
L 268.247949 231.824842 
L 268.48389 270.022737 
L 268.719831 155.429053 
L 268.955772 270.022737 
L 269.191712 206.359579 
L 269.427653 219.092211 
L 269.663594 257.290105 
L 269.899535 180.894316 
L 270.135476 231.824842 
L 270.371416 168.161684 
L 270.607357 155.429053 
L 271.079239 219.092211 
L 271.31518 231.824842 
L 271.551121 168.161684 
L 271.787061 257.290105 
L 272.023002 257.290105 
L 272.494884 168.161684 
L 272.730825 231.824842 
L 272.966765 180.894316 
L 273.202706 231.824842 
L 273.438647 206.359579 
L 273.674588 193.626947 
L 273.910529 142.696421 
L 274.146469 257.290105 
L 274.38241 129.963789 
L 274.854292 206.359579 
L 275.090233 155.429053 
L 275.326173 206.359579 
L 275.562114 231.824842 
L 276.033996 142.696421 
L 276.269937 257.290105 
L 276.505877 129.963789 
L 276.741818 244.557474 
L 276.977759 206.359579 
L 277.2137 206.359579 
L 277.449641 193.626947 
L 277.685581 142.696421 
L 277.921522 168.161684 
L 278.157463 155.429053 
L 278.393404 231.824842 
L 278.629345 219.092211 
L 278.865285 180.894316 
L 279.101226 193.626947 
L 279.337167 155.429053 
L 279.573108 193.626947 
L 279.809049 257.290105 
L 280.044989 206.359579 
L 280.28093 193.626947 
L 280.516871 219.092211 
L 280.752812 168.161684 
L 280.988753 168.161684 
L 281.460634 244.557474 
L 281.696575 129.963789 
L 281.932516 193.626947 
L 282.168457 219.092211 
L 282.404397 142.696421 
L 282.640338 142.696421 
L 282.876279 193.626947 
L 283.11222 219.092211 
L 283.348161 231.824842 
L 283.584101 193.626947 
L 283.820042 117.231158 
L 284.055983 180.894316 
L 284.291924 142.696421 
L 284.527865 193.626947 
L 284.763805 142.696421 
L 284.999746 282.755368 
L 285.235687 168.161684 
L 285.471628 168.161684 
L 285.707569 193.626947 
L 285.94351 231.824842 
L 286.17945 219.092211 
L 286.415391 257.290105 
L 286.651332 231.824842 
L 286.887273 142.696421 
L 287.123214 219.092211 
L 287.359154 180.894316 
L 287.595095 244.557474 
L 287.831036 168.161684 
L 288.066977 180.894316 
L 288.302918 180.894316 
L 288.538858 168.161684 
L 288.774799 180.894316 
L 289.01074 180.894316 
L 289.246681 155.429053 
L 289.482622 180.894316 
L 289.718562 257.290105 
L 289.954503 257.290105 
L 290.190444 193.626947 
L 290.426385 168.161684 
L 290.662326 206.359579 
L 290.898266 180.894316 
L 291.134207 168.161684 
L 291.370148 180.894316 
L 291.606089 168.161684 
L 291.84203 129.963789 
L 292.07797 244.557474 
L 292.313911 219.092211 
L 292.549852 231.824842 
L 292.785793 219.092211 
L 293.021734 219.092211 
L 293.257674 244.557474 
L 293.493615 244.557474 
L 293.729556 231.824842 
L 293.965497 155.429053 
L 294.437378 219.092211 
L 294.673319 244.557474 
L 294.90926 193.626947 
L 295.145201 180.894316 
L 295.381142 257.290105 
L 295.853023 129.963789 
L 296.088964 155.429053 
L 296.324905 206.359579 
L 296.560846 168.161684 
L 296.796786 168.161684 
L 297.032727 155.429053 
L 297.268668 155.429053 
L 297.504609 142.696421 
L 297.74055 193.626947 
L 297.97649 129.963789 
L 298.212431 129.963789 
L 298.448372 142.696421 
L 298.684313 231.824842 
L 298.920254 168.161684 
L 299.392135 193.626947 
L 299.628076 155.429053 
L 299.864017 257.290105 
L 300.335899 231.824842 
L 300.571839 180.894316 
L 300.80778 168.161684 
L 301.043721 270.022737 
L 301.515603 155.429053 
L 301.751543 142.696421 
L 301.987484 231.824842 
L 302.223425 155.429053 
L 302.695307 244.557474 
L 302.931247 155.429053 
L 303.167188 231.824842 
L 303.403129 257.290105 
L 303.63907 219.092211 
L 303.875011 155.429053 
L 304.110951 206.359579 
L 304.346892 206.359579 
L 304.582833 257.290105 
L 304.818774 168.161684 
L 305.054715 206.359579 
L 305.290655 206.359579 
L 305.526596 142.696421 
L 305.762537 206.359579 
L 305.998478 206.359579 
L 306.234419 180.894316 
L 306.470359 231.824842 
L 306.7063 142.696421 
L 306.942241 206.359579 
L 307.178182 193.626947 
L 307.650063 219.092211 
L 307.886004 180.894316 
L 308.121945 180.894316 
L 308.357886 155.429053 
L 308.593827 219.092211 
L 308.829767 180.894316 
L 309.065708 244.557474 
L 309.301649 180.894316 
L 309.53759 244.557474 
L 310.009471 142.696421 
L 310.245412 206.359579 
L 310.481353 168.161684 
L 310.717294 193.626947 
L 310.953235 155.429053 
L 311.189175 257.290105 
L 311.425116 168.161684 
L 311.896998 104.498526 
L 312.132939 219.092211 
L 312.368879 206.359579 
L 312.60482 219.092211 
L 312.840761 244.557474 
L 313.076702 129.963789 
L 313.312643 257.290105 
L 313.548584 244.557474 
L 313.784524 206.359579 
L 314.020465 206.359579 
L 314.256406 193.626947 
L 314.492347 155.429053 
L 314.728288 168.161684 
L 314.964228 231.824842 
L 315.200169 206.359579 
L 315.43611 206.359579 
L 315.672051 231.824842 
L 315.907992 231.824842 
L 316.143932 219.092211 
L 316.379873 244.557474 
L 316.615814 244.557474 
L 317.323636 206.359579 
L 317.795518 257.290105 
L 318.031459 219.092211 
L 318.2674 219.092211 
L 318.50334 193.626947 
L 318.739281 231.824842 
L 318.975222 129.963789 
L 319.211163 142.696421 
L 319.683044 244.557474 
L 319.918985 219.092211 
L 320.154926 168.161684 
L 320.390867 231.824842 
L 320.626808 155.429053 
L 320.862748 231.824842 
L 321.098689 270.022737 
L 321.33463 282.755368 
L 321.570571 206.359579 
L 321.806512 206.359579 
L 322.278393 257.290105 
L 322.514334 244.557474 
L 322.750275 193.626947 
L 322.986216 244.557474 
L 323.222156 219.092211 
L 323.458097 244.557474 
L 323.694038 244.557474 
L 323.929979 168.161684 
L 324.16592 180.894316 
L 324.40186 244.557474 
L 324.637801 193.626947 
L 324.873742 168.161684 
L 325.109683 206.359579 
L 325.345624 270.022737 
L 325.581564 168.161684 
L 325.817505 231.824842 
L 326.053446 168.161684 
L 326.289387 231.824842 
L 326.525328 206.359579 
L 326.761268 231.824842 
L 326.997209 168.161684 
L 327.23315 142.696421 
L 327.469091 180.894316 
L 327.705032 193.626947 
L 327.940973 180.894316 
L 328.176913 219.092211 
L 328.412854 180.894316 
L 328.648795 168.161684 
L 328.884736 168.161684 
L 329.120677 180.894316 
L 329.356617 231.824842 
L 329.592558 193.626947 
L 329.828499 193.626947 
L 330.06444 219.092211 
L 330.300381 155.429053 
L 330.536321 193.626947 
L 330.772262 168.161684 
L 331.008203 219.092211 
L 331.244144 206.359579 
L 331.480085 219.092211 
L 331.716025 193.626947 
L 331.951966 244.557474 
L 332.187907 168.161684 
L 332.423848 180.894316 
L 332.895729 155.429053 
L 333.13167 231.824842 
L 333.367611 180.894316 
L 333.603552 219.092211 
L 333.839493 168.161684 
L 334.075433 231.824842 
L 334.311374 142.696421 
L 334.547315 244.557474 
L 335.019197 244.557474 
L 335.255137 155.429053 
L 335.491078 180.894316 
L 335.727019 142.696421 
L 335.96296 257.290105 
L 336.434841 180.894316 
L 336.670782 180.894316 
L 336.906723 168.161684 
L 337.142664 180.894316 
L 337.378605 168.161684 
L 337.614545 244.557474 
L 337.850486 219.092211 
L 338.086427 231.824842 
L 338.322368 104.498526 
L 338.558309 117.231158 
L 338.794249 168.161684 
L 339.03019 142.696421 
L 339.738013 244.557474 
L 339.973953 142.696421 
L 340.209894 219.092211 
L 340.681776 155.429053 
L 340.917717 206.359579 
L 341.153658 231.824842 
L 341.389598 168.161684 
L 341.625539 155.429053 
L 341.86148 180.894316 
L 342.097421 244.557474 
L 342.333362 231.824842 
L 342.569302 206.359579 
L 342.805243 219.092211 
L 343.041184 180.894316 
L 343.277125 219.092211 
L 343.513066 219.092211 
L 343.749006 244.557474 
L 343.984947 180.894316 
L 344.220888 155.429053 
L 344.456829 193.626947 
L 344.69277 257.290105 
L 344.92871 155.429053 
L 345.164651 129.963789 
L 345.400592 231.824842 
L 345.636533 219.092211 
L 346.108414 129.963789 
L 346.344355 206.359579 
L 346.580296 219.092211 
L 346.816237 193.626947 
L 347.052178 155.429053 
L 347.524059 257.290105 
L 347.76 244.557474 
L 348.231882 168.161684 
L 348.467822 180.894316 
L 348.703763 206.359579 
L 348.939704 206.359579 
L 349.175645 193.626947 
L 349.411586 168.161684 
L 349.647526 193.626947 
L 349.883467 193.626947 
L 350.119408 180.894316 
L 350.355349 180.894316 
L 350.59129 155.429053 
L 350.82723 231.824842 
L 351.063171 193.626947 
L 351.299112 206.359579 
L 351.535053 142.696421 
L 351.770994 244.557474 
L 352.006934 180.894316 
L 352.242875 244.557474 
L 352.478816 168.161684 
L 352.714757 155.429053 
L 352.950698 231.824842 
L 353.186638 193.626947 
L 353.422579 270.022737 
L 353.65852 206.359579 
L 353.894461 104.498526 
L 354.130402 206.359579 
L 354.366342 129.963789 
L 354.602283 129.963789 
L 354.838224 219.092211 
L 355.074165 219.092211 
L 355.310106 193.626947 
L 355.546047 193.626947 
L 355.781987 155.429053 
L 356.017928 168.161684 
L 356.253869 244.557474 
L 356.725751 155.429053 
L 356.961691 231.824842 
L 357.197632 180.894316 
L 357.433573 244.557474 
L 357.905455 142.696421 
L 358.141395 193.626947 
L 358.377336 129.963789 
L 358.613277 168.161684 
L 358.849218 155.429053 
L 359.085159 180.894316 
L 359.321099 282.755368 
L 359.792981 104.498526 
L 360.028922 180.894316 
L 360.264863 155.429053 
L 360.500803 168.161684 
L 360.736744 168.161684 
L 360.972685 257.290105 
L 361.208626 168.161684 
L 361.444567 193.626947 
L 361.680507 168.161684 
L 362.152389 142.696421 
L 362.624271 168.161684 
L 362.860211 219.092211 
L 363.096152 155.429053 
L 363.332093 219.092211 
L 363.803975 104.498526 
L 364.039915 180.894316 
L 364.275856 206.359579 
L 364.511797 168.161684 
L 364.747738 231.824842 
L 364.983679 219.092211 
L 365.219619 193.626947 
L 365.45556 231.824842 
L 365.691501 142.696421 
L 365.927442 180.894316 
L 366.163383 244.557474 
L 366.399323 219.092211 
L 366.635264 206.359579 
L 366.871205 206.359579 
L 367.107146 219.092211 
L 367.579027 168.161684 
L 367.814968 219.092211 
L 368.050909 180.894316 
L 368.28685 219.092211 
L 368.522791 206.359579 
L 368.758732 231.824842 
L 368.994672 219.092211 
L 369.230613 231.824842 
L 369.466554 206.359579 
L 369.938436 142.696421 
L 370.410317 219.092211 
L 370.646258 142.696421 
L 370.882199 219.092211 
L 371.11814 155.429053 
L 371.35408 155.429053 
L 371.590021 193.626947 
L 371.825962 206.359579 
L 372.061903 180.894316 
L 372.297844 231.824842 
L 372.533784 142.696421 
L 372.769725 117.231158 
L 373.005666 180.894316 
L 373.241607 79.033263 
L 373.477548 206.359579 
L 373.713488 193.626947 
L 373.949429 206.359579 
L 374.18537 206.359579 
L 374.421311 53.568 
L 374.657252 231.824842 
L 374.893192 129.963789 
L 375.129133 168.161684 
L 375.365074 231.824842 
L 375.601015 155.429053 
L 375.836956 168.161684 
L 376.072896 193.626947 
L 376.308837 117.231158 
L 376.544778 231.824842 
L 376.780719 244.557474 
L 377.2526 193.626947 
L 377.488541 206.359579 
L 377.724482 129.963789 
L 377.960423 129.963789 
L 378.196364 142.696421 
L 378.432304 142.696421 
L 378.668245 104.498526 
L 378.904186 231.824842 
L 379.140127 193.626947 
L 379.376068 270.022737 
L 379.612008 180.894316 
L 379.847949 244.557474 
L 380.08389 168.161684 
L 380.319831 155.429053 
L 380.555772 244.557474 
L 380.791712 219.092211 
L 381.027653 257.290105 
L 381.263594 91.765895 
L 381.499535 168.161684 
L 381.735476 142.696421 
L 381.971416 155.429053 
L 382.207357 231.824842 
L 382.443298 219.092211 
L 382.679239 219.092211 
L 382.91518 180.894316 
L 383.151121 244.557474 
L 383.387061 180.894316 
L 383.623002 270.022737 
L 384.094884 180.894316 
L 384.330825 219.092211 
L 384.566765 129.963789 
L 384.802706 219.092211 
L 385.038647 206.359579 
L 385.274588 155.429053 
L 385.510529 231.824842 
L 385.98241 206.359579 
L 386.218351 231.824842 
L 386.454292 180.894316 
L 386.690233 206.359579 
L 386.926173 219.092211 
L 387.162114 219.092211 
L 387.398055 244.557474 
L 387.633996 168.161684 
L 387.869937 180.894316 
L 388.105877 219.092211 
L 388.577759 168.161684 
L 388.8137 219.092211 
L 389.049641 244.557474 
L 389.285581 180.894316 
L 389.521522 168.161684 
L 389.993404 231.824842 
L 390.229345 193.626947 
L 390.465285 117.231158 
L 390.701226 219.092211 
L 390.937167 206.359579 
L 391.173108 206.359579 
L 391.409049 193.626947 
L 391.644989 231.824842 
L 391.88093 231.824842 
L 392.352812 168.161684 
L 392.588753 257.290105 
L 392.824693 193.626947 
L 393.060634 219.092211 
L 393.532516 104.498526 
L 393.768457 168.161684 
L 394.004397 180.894316 
L 394.240338 244.557474 
L 394.476279 270.022737 
L 394.948161 155.429053 
L 395.184101 180.894316 
L 395.420042 155.429053 
L 395.655983 168.161684 
L 396.127865 168.161684 
L 396.363805 193.626947 
L 396.835687 219.092211 
L 397.071628 193.626947 
L 397.307569 155.429053 
L 397.54351 193.626947 
L 397.77945 206.359579 
L 398.015391 168.161684 
L 398.251332 155.429053 
L 398.487273 244.557474 
L 398.487273 244.557474 
" style="fill:none;stroke:#1f77b4;stroke-linecap:square;stroke-width:1.5;"/>
   </g>
   <g id="patch_3">
    <path d="M 57.6 307.584 
L 57.6 41.472 
" style="fill:none;stroke:#000000;stroke-linecap:square;stroke-linejoin:miter;stroke-width:0.8;"/>
   </g>
   <g id="patch_4">
    <path d="M 414.72 307.584 
L 414.72 41.472 
" style="fill:none;stroke:#000000;stroke-linecap:square;stroke-linejoin:miter;stroke-width:0.8;"/>
   </g>
   <g id="patch_5">
    <path d="M 57.6 307.584 
L 414.72 307.584 
" style="fill:none;stroke:#000000;stroke-linecap:square;stroke-linejoin:miter;stroke-width:0.8;"/>
   </g>
   <g id="patch_6">
    <path d="M 57.6 41.472 
L 414.72 41.472 
" style="fill:none;stroke:#000000;stroke-linecap:square;stroke-linejoin:miter;stroke-width:0.8;"/>
   </g>
  </g>
 </g>
 <defs>
  <clipPath id="p02fa1a2e94">
   <rect height="266.112" width="357.12" x="57.6" y="41.472"/>
  </clipPath>
 </defs>
</svg>
